<?xml version="1.0" encoding="utf-8" standalone="no"?>
<!DOCTYPE svg PUBLIC "-//W3C//DTD SVG 1.1//EN"
  "http://www.w3.org/Graphics/SVG/1.1/DTD/svg11.dtd">
<svg xmlns:xlink="http://www.w3.org/1999/xlink" width="558pt" height="548.37931pt" viewBox="0 0 558 548.37931" xmlns="http://www.w3.org/2000/svg" version="1.1">
 <metadata>
  <rdf:RDF xmlns:dc="http://purl.org/dc/elements/1.1/" xmlns:cc="http://creativecommons.org/ns#" xmlns:rdf="http://www.w3.org/1999/02/22-rdf-syntax-ns#">
   <cc:Work>
    <dc:type rdf:resource="http://purl.org/dc/dcmitype/StillImage"/>
    <dc:date>2023-05-13T12:12:45.194013</dc:date>
    <dc:format>image/svg+xml</dc:format>
    <dc:creator>
     <cc:Agent>
      <dc:title>Matplotlib v3.7.1, https://matplotlib.org/</dc:title>
     </cc:Agent>
    </dc:creator>
   </cc:Work>
  </rdf:RDF>
 </metadata>
 <defs>
  <style type="text/css">*{stroke-linejoin: round; stroke-linecap: butt}</style>
 </defs>
 <g id="figure_1">
  <g id="axes_1">
   <g id="patch_1">
    <path d="M 7.215517 274.189655 
C 7.215517 273.870832 7.08873 273.56474 6.863288 273.339298 
C 6.637846 273.113856 6.331754 272.987069 6.012931 272.987069 
C 5.694108 272.987069 5.388016 273.113856 5.162574 273.339298 
C 4.937132 273.56474 4.810345 273.870832 4.810345 274.189655 
" clip-path="url(#pc5af23950d)" style="fill: none; stroke: #808080; stroke-linejoin: miter"/>
   </g>
   <g id="patch_2">
    <path d="M 7.215517 274.189655 
C 7.215517 274.827302 7.469092 275.439485 7.919976 275.890369 
C 8.37086 276.341253 8.983043 276.594828 9.62069 276.594828 
C 10.258336 276.594828 10.870519 276.341253 11.321403 275.890369 
C 11.772288 275.439485 12.025862 274.827302 12.025862 274.189655 
" clip-path="url(#pc5af23950d)" style="fill: none; stroke: #808080; stroke-linejoin: miter"/>
   </g>
   <g id="patch_3">
    <path d="M 19.241379 274.189655 
C 19.241379 273.233185 18.861018 272.314911 18.184691 271.638585 
C 17.508365 270.962258 16.590091 270.581897 15.633621 270.581897 
C 14.677151 270.581897 13.758877 270.962258 13.08255 271.638585 
C 12.406224 272.314911 12.025862 273.233185 12.025862 274.189655 
" clip-path="url(#pc5af23950d)" style="fill: none; stroke: #808080; stroke-linejoin: miter"/>
   </g>
   <g id="patch_4">
    <path d="M 9.62069 274.189655 
C 9.62069 275.464949 10.127838 276.689314 11.029607 277.591083 
C 11.931376 278.492851 13.155741 279 14.431034 279 
C 15.706328 279 16.930693 278.492851 17.832462 277.591083 
C 18.734231 276.689314 19.241379 275.464949 19.241379 274.189655 
" clip-path="url(#pc5af23950d)" style="fill: none; stroke: #808080; stroke-linejoin: miter"/>
   </g>
   <g id="patch_5">
    <path d="M 21.646552 274.189655 
C 21.646552 272.595538 21.012616 271.065082 19.885405 269.937871 
C 18.758194 268.81066 17.227738 268.176724 15.633621 268.176724 
C 14.039504 268.176724 12.509047 268.81066 11.381836 269.937871 
C 10.254626 271.065082 9.62069 272.595538 9.62069 274.189655 
" clip-path="url(#pc5af23950d)" style="fill: none; stroke: #808080; stroke-linejoin: miter"/>
   </g>
   <g id="patch_6">
    <path d="M 21.646552 274.189655 
C 21.646552 276.102595 22.407275 277.939143 23.759928 279.291796 
C 25.112581 280.644449 26.949129 281.405172 28.862069 281.405172 
C 30.775009 281.405172 32.611557 280.644449 33.96421 279.291796 
C 35.316863 277.939143 36.077586 276.102595 36.077586 274.189655 
" clip-path="url(#pc5af23950d)" style="fill: none; stroke: #808080; stroke-linejoin: miter"/>
   </g>
   <g id="patch_7">
    <path d="M 52.913793 274.189655 
C 52.913793 271.957892 52.026283 269.815252 50.448188 268.237157 
C 48.870093 266.659062 46.727453 265.771552 44.49569 265.771552 
C 42.263926 265.771552 40.121287 266.659062 38.543192 268.237157 
C 36.965096 269.815252 36.077586 271.957892 36.077586 274.189655 
" clip-path="url(#pc5af23950d)" style="fill: none; stroke: #808080; stroke-linejoin: miter"/>
   </g>
   <g id="patch_8">
    <path d="M 33.672414 274.189655 
C 33.672414 276.740242 34.686711 279.188973 36.490249 280.99251 
C 38.293786 282.796047 40.742516 283.810345 43.293103 283.810345 
C 45.84369 283.810345 48.292421 282.796047 50.095958 280.99251 
C 51.899496 279.188973 52.913793 276.740242 52.913793 274.189655 
" clip-path="url(#pc5af23950d)" style="fill: none; stroke: #808080; stroke-linejoin: miter"/>
   </g>
   <g id="patch_9">
    <path d="M 55.318966 274.189655 
C 55.318966 271.320245 54.177881 268.565423 52.148901 266.536443 
C 50.119922 264.507464 47.3651 263.366379 44.49569 263.366379 
C 41.626279 263.366379 38.871457 264.507464 36.842478 266.536443 
C 34.813498 268.565423 33.672414 271.320245 33.672414 274.189655 
" clip-path="url(#pc5af23950d)" style="fill: none; stroke: #808080; stroke-linejoin: miter"/>
   </g>
   <g id="patch_10">
    <path d="M 31.267241 274.189655 
C 31.267241 277.377889 32.535113 280.438802 34.789535 282.693224 
C 37.043956 284.947645 40.10487 286.215517 43.293103 286.215517 
C 46.481337 286.215517 49.54225 284.947645 51.796672 282.693224 
C 54.051094 280.438802 55.318966 277.377889 55.318966 274.189655 
" clip-path="url(#pc5af23950d)" style="fill: none; stroke: #808080; stroke-linejoin: miter"/>
   </g>
   <g id="patch_11">
    <path d="M 57.724138 274.189655 
C 57.724138 270.682598 56.329479 267.315594 53.849615 264.83573 
C 51.369751 262.355866 48.002747 260.961207 44.49569 260.961207 
C 40.988633 260.961207 37.621628 262.355866 35.141764 264.83573 
C 32.6619 267.315594 31.267241 270.682598 31.267241 274.189655 
" clip-path="url(#pc5af23950d)" style="fill: none; stroke: #808080; stroke-linejoin: miter"/>
   </g>
   <g id="patch_12">
    <path d="M 28.862069 274.189655 
C 28.862069 278.015536 30.383515 281.688632 33.088821 284.393938 
C 35.794127 287.099244 39.467223 288.62069 43.293103 288.62069 
C 47.118984 288.62069 50.79208 287.099244 53.497386 284.393938 
C 56.202692 281.688632 57.724138 278.015536 57.724138 274.189655 
" clip-path="url(#pc5af23950d)" style="fill: none; stroke: #808080; stroke-linejoin: miter"/>
   </g>
   <g id="patch_13">
    <path d="M 60.12931 274.189655 
C 60.12931 270.044951 58.481077 266.065764 55.550329 263.135016 
C 52.619581 260.204268 48.640393 258.556034 44.49569 258.556034 
C 40.350986 258.556034 36.371799 260.204268 33.44105 263.135016 
C 30.510302 266.065764 28.862069 270.044951 28.862069 274.189655 
" clip-path="url(#pc5af23950d)" style="fill: none; stroke: #808080; stroke-linejoin: miter"/>
   </g>
   <g id="patch_14">
    <path d="M 26.456897 274.189655 
C 26.456897 278.653182 28.231917 282.938461 31.388107 286.094651 
C 34.544298 289.250842 38.829576 291.025862 43.293103 291.025862 
C 47.756631 291.025862 52.041909 289.250842 55.1981 286.094651 
C 58.35429 282.938461 60.12931 278.653182 60.12931 274.189655 
" clip-path="url(#pc5af23950d)" style="fill: none; stroke: #808080; stroke-linejoin: miter"/>
   </g>
   <g id="patch_15">
    <path d="M 62.534483 274.189655 
C 62.534483 269.407305 60.632675 264.815935 57.251043 261.434302 
C 53.86941 258.05267 49.27804 256.150862 44.49569 256.150862 
C 39.713339 256.150862 35.121969 258.05267 31.740337 261.434302 
C 28.358704 264.815935 26.456897 269.407305 26.456897 274.189655 
" clip-path="url(#pc5af23950d)" style="fill: none; stroke: #808080; stroke-linejoin: miter"/>
   </g>
   <g id="patch_16">
    <path d="M 24.051724 274.189655 
C 24.051724 279.290829 26.080319 284.18829 29.687394 287.795365 
C 33.294468 291.40244 38.19193 293.431034 43.293103 293.431034 
C 48.394277 293.431034 53.291739 291.40244 56.898813 287.795365 
C 60.505888 284.18829 62.534483 279.290829 62.534483 274.189655 
" clip-path="url(#pc5af23950d)" style="fill: none; stroke: #808080; stroke-linejoin: miter"/>
   </g>
   <g id="patch_17">
    <path d="M 64.939655 274.189655 
C 64.939655 268.769658 62.784273 263.566105 58.951756 259.733589 
C 55.119239 255.901072 49.915687 253.74569 44.49569 253.74569 
C 39.075692 253.74569 33.87214 255.901072 30.039623 259.733589 
C 26.207106 263.566105 24.051724 268.769658 24.051724 274.189655 
" clip-path="url(#pc5af23950d)" style="fill: none; stroke: #808080; stroke-linejoin: miter"/>
   </g>
   <g id="patch_18">
    <path d="M 64.939655 274.189655 
C 64.939655 279.928476 67.221824 285.43812 71.279783 289.496079 
C 75.337742 293.554038 80.847386 295.836207 86.586207 295.836207 
C 92.325028 295.836207 97.834671 293.554038 101.89263 289.496079 
C 105.950589 285.43812 108.232759 279.928476 108.232759 274.189655 
" clip-path="url(#pc5af23950d)" style="fill: none; stroke: #808080; stroke-linejoin: miter"/>
   </g>
   <g id="patch_19">
    <path d="M 153.931034 274.189655 
C 153.931034 268.132011 151.522078 262.316276 147.238677 258.032875 
C 142.955276 253.749474 137.139541 251.340517 131.081897 251.340517 
C 125.024253 251.340517 119.208517 253.749474 114.925116 258.032875 
C 110.641715 262.316276 108.232759 268.132011 108.232759 274.189655 
" clip-path="url(#pc5af23950d)" style="fill: none; stroke: #808080; stroke-linejoin: miter"/>
   </g>
   <g id="patch_20">
    <path d="M 105.827586 274.189655 
C 105.827586 280.566123 108.36333 286.687949 112.872173 291.196792 
C 117.381016 295.705636 123.502843 298.241379 129.87931 298.241379 
C 136.255778 298.241379 142.377604 295.705636 146.886448 291.196792 
C 151.395291 286.687949 153.931034 280.566123 153.931034 274.189655 
" clip-path="url(#pc5af23950d)" style="fill: none; stroke: #808080; stroke-linejoin: miter"/>
   </g>
   <g id="patch_21">
    <path d="M 156.336207 274.189655 
C 156.336207 267.494364 153.673676 261.066447 148.939391 256.332161 
C 144.205105 251.597876 137.777187 248.935345 131.081897 248.935345 
C 124.386606 248.935345 117.958688 251.597876 113.224402 256.332161 
C 108.490117 261.066447 105.827586 267.494364 105.827586 274.189655 
" clip-path="url(#pc5af23950d)" style="fill: none; stroke: #808080; stroke-linejoin: miter"/>
   </g>
   <g id="patch_22">
    <path d="M 103.422414 274.189655 
C 103.422414 281.203769 106.211732 287.937778 111.171459 292.897506 
C 116.131187 297.857234 122.865196 300.646552 129.87931 300.646552 
C 136.893424 300.646552 143.627434 297.857234 148.587161 292.897506 
C 153.546889 287.937778 156.336207 281.203769 156.336207 274.189655 
" clip-path="url(#pc5af23950d)" style="fill: none; stroke: #808080; stroke-linejoin: miter"/>
   </g>
   <g id="patch_23">
    <path d="M 103.422414 274.189655 
C 103.422414 266.856718 100.506309 259.816617 95.321139 254.631447 
C 90.135969 249.446278 83.095869 246.530172 75.762931 246.530172 
C 68.429994 246.530172 61.389893 249.446278 56.204723 254.631447 
C 51.019553 259.816617 48.103448 266.856718 48.103448 274.189655 
" clip-path="url(#pc5af23950d)" style="fill: none; stroke: #808080; stroke-linejoin: miter"/>
   </g>
   <g id="patch_24">
    <path d="M 48.103448 274.189655 
C 48.103448 281.841416 51.146341 289.187608 56.556953 294.59822 
C 61.967565 300.008832 69.313756 303.051724 76.965517 303.051724 
C 84.617278 303.051724 91.96347 300.008832 97.374082 294.59822 
C 102.784694 289.187608 105.827586 281.841416 105.827586 274.189655 
" clip-path="url(#pc5af23950d)" style="fill: none; stroke: #808080; stroke-linejoin: miter"/>
   </g>
   <g id="patch_25">
    <path d="M 105.827586 274.189655 
C 105.827586 266.219071 102.657907 258.566788 97.021853 252.930734 
C 91.385798 247.294679 83.733515 244.125 75.762931 244.125 
C 67.792347 244.125 60.140064 247.294679 54.504009 252.930734 
C 48.867955 258.566788 45.698276 266.219071 45.698276 274.189655 
" clip-path="url(#pc5af23950d)" style="fill: none; stroke: #808080; stroke-linejoin: miter"/>
   </g>
   <g id="patch_26">
    <path d="M 45.698276 274.189655 
C 45.698276 282.479063 48.994742 290.437437 54.856239 296.298934 
C 60.717735 302.16043 68.67611 305.456897 76.965517 305.456897 
C 85.254925 305.456897 93.213299 302.16043 99.074796 296.298934 
C 104.936292 290.437437 108.232759 282.479063 108.232759 274.189655 
" clip-path="url(#pc5af23950d)" style="fill: none; stroke: #808080; stroke-linejoin: miter"/>
   </g>
   <g id="patch_27">
    <path d="M 108.232759 274.189655 
C 108.232759 265.581424 104.809505 257.316958 98.722566 251.23002 
C 92.635628 245.143081 84.371162 241.719828 75.762931 241.719828 
C 67.1547 241.719828 58.890234 245.143081 52.803296 251.23002 
C 46.716357 257.316958 43.293103 265.581424 43.293103 274.189655 
" clip-path="url(#pc5af23950d)" style="fill: none; stroke: #808080; stroke-linejoin: miter"/>
   </g>
   <g id="patch_28">
    <path d="M 43.293103 274.189655 
C 43.293103 283.11671 46.843144 291.687267 53.155525 297.999647 
C 59.467906 304.312028 68.038463 307.862069 76.965517 307.862069 
C 85.892572 307.862069 94.463129 304.312028 100.775509 297.999647 
C 107.08789 291.687267 110.637931 283.11671 110.637931 274.189655 
" clip-path="url(#pc5af23950d)" style="fill: none; stroke: #808080; stroke-linejoin: miter"/>
   </g>
   <g id="patch_29">
    <path d="M 110.637931 274.189655 
C 110.637931 264.943777 106.961103 256.067129 100.42328 249.529306 
C 93.885457 242.991483 85.008809 239.314655 75.762931 239.314655 
C 66.517053 239.314655 57.640405 242.991483 51.102582 249.529306 
C 44.564759 256.067129 40.887931 264.943777 40.887931 274.189655 
" clip-path="url(#pc5af23950d)" style="fill: none; stroke: #808080; stroke-linejoin: miter"/>
   </g>
   <g id="patch_30">
    <path d="M 40.887931 274.189655 
C 40.887931 283.754356 44.691546 292.937096 51.454811 299.700361 
C 58.218076 306.463626 67.400816 310.267241 76.965517 310.267241 
C 86.530218 310.267241 95.712958 306.463626 102.476223 299.700361 
C 109.239488 292.937096 113.043103 283.754356 113.043103 274.189655 
" clip-path="url(#pc5af23950d)" style="fill: none; stroke: #808080; stroke-linejoin: miter"/>
   </g>
   <g id="patch_31">
    <path d="M 113.043103 274.189655 
C 113.043103 264.306131 109.112701 254.8173 102.123994 247.828592 
C 95.135287 240.839885 85.646455 236.909483 75.762931 236.909483 
C 65.879407 236.909483 56.390575 240.839885 49.401868 247.828592 
C 42.413161 254.8173 38.482759 264.306131 38.482759 274.189655 
" clip-path="url(#pc5af23950d)" style="fill: none; stroke: #808080; stroke-linejoin: miter"/>
   </g>
   <g id="patch_32">
    <path d="M 38.482759 274.189655 
C 38.482759 284.392003 42.539948 294.186925 49.754098 301.401075 
C 56.968247 308.615224 66.763169 312.672414 76.965517 312.672414 
C 87.167865 312.672414 96.962787 308.615224 104.176937 301.401075 
C 111.391086 294.186925 115.448276 284.392003 115.448276 274.189655 
" clip-path="url(#pc5af23950d)" style="fill: none; stroke: #808080; stroke-linejoin: miter"/>
   </g>
   <g id="patch_33">
    <path d="M 194.818966 274.189655 
C 194.818966 263.668484 190.634989 253.56747 183.195397 246.127879 
C 175.755806 238.688287 165.654792 234.50431 155.133621 234.50431 
C 144.612449 234.50431 134.511436 238.688287 127.071844 246.127879 
C 119.632253 253.56747 115.448276 263.668484 115.448276 274.189655 
" clip-path="url(#pc5af23950d)" style="fill: none; stroke: #808080; stroke-linejoin: miter"/>
   </g>
   <g id="patch_34">
    <path d="M 194.818966 274.189655 
C 194.818966 285.02965 199.12973 295.436755 206.794763 303.101788 
C 214.459797 310.766822 224.866902 315.077586 235.706897 315.077586 
C 246.546891 315.077586 256.953996 310.766822 264.61903 303.101788 
C 272.284064 295.436755 276.594828 285.02965 276.594828 274.189655 
" clip-path="url(#pc5af23950d)" style="fill: none; stroke: #808080; stroke-linejoin: miter"/>
   </g>
   <g id="patch_35">
    <path d="M 276.594828 274.189655 
C 276.594828 263.030837 272.157276 252.317641 264.266801 244.427165 
C 256.376325 236.536689 245.663128 232.099138 234.50431 232.099138 
C 223.345492 232.099138 212.632296 236.536689 204.74182 244.427165 
C 196.851344 252.317641 192.413793 263.030837 192.413793 274.189655 
" clip-path="url(#pc5af23950d)" style="fill: none; stroke: #808080; stroke-linejoin: miter"/>
   </g>
   <g id="patch_36">
    <path d="M 192.413793 274.189655 
C 192.413793 285.667296 196.978132 296.686584 205.09405 304.802502 
C 213.209968 312.91842 224.229255 317.482759 235.706897 317.482759 
C 247.184538 317.482759 258.203826 312.91842 266.319744 304.802502 
C 274.435662 296.686584 279 285.667296 279 274.189655 
" clip-path="url(#pc5af23950d)" style="fill: none; stroke: #808080; stroke-linejoin: miter"/>
   </g>
   <g id="patch_37">
    <path d="M 279 274.189655 
C 279 262.39319 274.308874 251.067811 265.967514 242.726451 
C 257.626154 234.385091 246.300775 229.693966 234.50431 229.693966 
C 222.707846 229.693966 211.382467 234.385091 203.041106 242.726451 
C 194.699746 251.067811 190.008621 262.39319 190.008621 274.189655 
" clip-path="url(#pc5af23950d)" style="fill: none; stroke: #808080; stroke-linejoin: miter"/>
   </g>
   <g id="patch_38">
    <path d="M 98.612069 274.189655 
C 98.612069 286.304943 103.429982 297.936414 111.996784 306.503216 
C 120.563586 315.070018 132.195057 319.887931 144.310345 319.887931 
C 156.425633 319.887931 168.057103 315.070018 176.623906 306.503216 
C 185.190708 297.936414 190.008621 286.304943 190.008621 274.189655 
" clip-path="url(#pc5af23950d)" style="fill: none; stroke: #808080; stroke-linejoin: miter"/>
   </g>
   <g id="patch_39">
    <path d="M 192.413793 274.189655 
C 192.413793 261.755544 187.469093 249.817982 178.676849 241.025738 
C 169.884604 232.233493 157.947042 227.288793 145.512931 227.288793 
C 133.07882 227.288793 121.141258 232.233493 112.349013 241.025738 
C 103.556769 249.817982 98.612069 261.755544 98.612069 274.189655 
" clip-path="url(#pc5af23950d)" style="fill: none; stroke: #808080; stroke-linejoin: miter"/>
   </g>
   <g id="patch_40">
    <path d="M 96.206897 274.189655 
C 96.206897 286.94259 101.278384 299.186243 110.29607 308.20393 
C 119.313757 317.221616 131.55741 322.293103 144.310345 322.293103 
C 157.06328 322.293103 169.306933 317.221616 178.324619 308.20393 
C 187.342306 299.186243 192.413793 286.94259 192.413793 274.189655 
" clip-path="url(#pc5af23950d)" style="fill: none; stroke: #808080; stroke-linejoin: miter"/>
   </g>
   <g id="patch_41">
    <path d="M 194.818966 274.189655 
C 194.818966 261.117897 189.620691 248.568153 180.377562 239.325024 
C 171.134434 230.081895 158.584689 224.883621 145.512931 224.883621 
C 132.441173 224.883621 119.891429 230.081895 110.6483 239.325024 
C 101.405171 248.568153 96.206897 261.117897 96.206897 274.189655 
" clip-path="url(#pc5af23950d)" style="fill: none; stroke: #808080; stroke-linejoin: miter"/>
   </g>
   <g id="patch_42">
    <path d="M 93.801724 274.189655 
C 93.801724 287.580237 99.126786 300.436072 108.595357 309.904643 
C 118.063928 319.373214 130.919763 324.698276 144.310345 324.698276 
C 157.700926 324.698276 170.556762 319.373214 180.025333 309.904643 
C 189.493904 300.436072 194.818966 287.580237 194.818966 274.189655 
" clip-path="url(#pc5af23950d)" style="fill: none; stroke: #808080; stroke-linejoin: miter"/>
   </g>
   <g id="patch_43">
    <path d="M 197.224138 274.189655 
C 197.224138 260.48025 191.772289 247.318323 182.078276 237.62431 
C 172.384263 227.930297 159.222336 222.478448 145.512931 222.478448 
C 131.803526 222.478448 118.641599 227.930297 108.947586 237.62431 
C 99.253573 247.318323 93.801724 260.48025 93.801724 274.189655 
" clip-path="url(#pc5af23950d)" style="fill: none; stroke: #808080; stroke-linejoin: miter"/>
   </g>
   <g id="patch_44">
    <path d="M 91.396552 274.189655 
C 91.396552 288.217883 96.975188 301.685902 106.894643 311.605357 
C 116.814098 321.524812 130.282117 327.103448 144.310345 327.103448 
C 158.338573 327.103448 171.806591 321.524812 181.726047 311.605357 
C 191.645502 301.685902 197.224138 288.217883 197.224138 274.189655 
" clip-path="url(#pc5af23950d)" style="fill: none; stroke: #808080; stroke-linejoin: miter"/>
   </g>
   <g id="patch_45">
    <path d="M 199.62931 274.189655 
C 199.62931 259.842604 193.923887 246.068494 183.77899 235.923596 
C 173.634092 225.778699 159.859983 220.073276 145.512931 220.073276 
C 131.165879 220.073276 117.39177 225.778699 107.246872 235.923596 
C 97.101975 246.068494 91.396552 259.842604 91.396552 274.189655 
" clip-path="url(#pc5af23950d)" style="fill: none; stroke: #808080; stroke-linejoin: miter"/>
   </g>
   <g id="patch_46">
    <path d="M 88.991379 274.189655 
C 88.991379 288.85553 94.82359 302.935731 105.193929 313.306071 
C 115.564269 323.67641 129.64447 329.508621 144.310345 329.508621 
C 158.97622 329.508621 173.056421 323.67641 183.42676 313.306071 
C 193.7971 302.935731 199.62931 288.85553 199.62931 274.189655 
" clip-path="url(#pc5af23950d)" style="fill: none; stroke: #808080; stroke-linejoin: miter"/>
   </g>
   <g id="patch_47">
    <path d="M 202.034483 274.189655 
C 202.034483 259.204957 196.075485 244.818665 185.479704 234.222883 
C 174.883922 223.627101 160.497629 217.668103 145.512931 217.668103 
C 130.528233 217.668103 116.14194 223.627101 105.546159 234.222883 
C 94.950377 244.818665 88.991379 259.204957 88.991379 274.189655 
" clip-path="url(#pc5af23950d)" style="fill: none; stroke: #808080; stroke-linejoin: miter"/>
   </g>
   <g id="patch_48">
    <path d="M 86.586207 274.189655 
C 86.586207 289.493177 92.671991 304.185561 103.493215 315.006785 
C 114.314439 325.828009 129.006823 331.913793 144.310345 331.913793 
C 159.613867 331.913793 174.30625 325.828009 185.127474 315.006785 
C 195.948698 304.185561 202.034483 289.493177 202.034483 274.189655 
" clip-path="url(#pc5af23950d)" style="fill: none; stroke: #808080; stroke-linejoin: miter"/>
   </g>
   <g id="patch_49">
    <path d="M 204.439655 274.189655 
C 204.439655 258.56731 198.227083 243.568835 187.180417 232.522169 
C 176.133751 221.475503 161.135276 215.262931 145.512931 215.262931 
C 129.890586 215.262931 114.892111 221.475503 103.845445 232.522169 
C 92.798779 243.568835 86.586207 258.56731 86.586207 274.189655 
" clip-path="url(#pc5af23950d)" style="fill: none; stroke: #808080; stroke-linejoin: miter"/>
   </g>
   <g id="patch_50">
    <path d="M 84.181034 274.189655 
C 84.181034 290.130824 90.520393 305.43539 101.792502 316.707498 
C 113.06461 327.979607 128.369176 334.318966 144.310345 334.318966 
C 160.251513 334.318966 175.55608 327.979607 186.828188 316.707498 
C 198.100296 305.43539 204.439655 290.130824 204.439655 274.189655 
" clip-path="url(#pc5af23950d)" style="fill: none; stroke: #808080; stroke-linejoin: miter"/>
   </g>
   <g id="patch_51">
    <path d="M 206.844828 274.189655 
C 206.844828 257.929663 200.378681 242.319006 188.881131 230.821455 
C 177.38358 219.323905 161.772923 212.857759 145.512931 212.857759 
C 129.252939 212.857759 113.642282 219.323905 102.144731 230.821455 
C 90.647181 242.319006 84.181034 257.929663 84.181034 274.189655 
" clip-path="url(#pc5af23950d)" style="fill: none; stroke: #808080; stroke-linejoin: miter"/>
   </g>
   <g id="patch_52">
    <path d="M 81.775862 274.189655 
C 81.775862 290.76847 88.368795 306.685219 100.091788 318.408212 
C 111.814781 330.131205 127.73153 336.724138 144.310345 336.724138 
C 160.88916 336.724138 176.805909 330.131205 188.528902 318.408212 
C 200.251894 306.685219 206.844828 290.76847 206.844828 274.189655 
" clip-path="url(#pc5af23950d)" style="fill: none; stroke: #808080; stroke-linejoin: miter"/>
   </g>
   <g id="patch_53">
    <path d="M 209.25 274.189655 
C 209.25 257.292017 202.53028 241.069176 190.581845 229.120741 
C 178.63341 217.172307 162.41057 210.452586 145.512931 210.452586 
C 128.615292 210.452586 112.392452 217.172307 100.444017 229.120741 
C 88.495583 241.069176 81.775862 257.292017 81.775862 274.189655 
" clip-path="url(#pc5af23950d)" style="fill: none; stroke: #808080; stroke-linejoin: miter"/>
   </g>
   <g id="patch_54">
    <path d="M 79.37069 274.189655 
C 79.37069 291.406117 86.217197 307.935049 98.391074 320.108926 
C 110.564951 332.282803 127.093883 339.12931 144.310345 339.12931 
C 161.526807 339.12931 178.055738 332.282803 190.229615 320.108926 
C 202.403492 307.935049 209.25 291.406117 209.25 274.189655 
" clip-path="url(#pc5af23950d)" style="fill: none; stroke: #808080; stroke-linejoin: miter"/>
   </g>
   <g id="patch_55">
    <path d="M 211.655172 274.189655 
C 211.655172 256.65437 204.681878 239.819347 192.282558 227.420028 
C 179.883239 215.020709 163.048216 208.047414 145.512931 208.047414 
C 127.977646 208.047414 111.142623 215.020709 98.743304 227.420028 
C 86.343984 239.819347 79.37069 256.65437 79.37069 274.189655 
" clip-path="url(#pc5af23950d)" style="fill: none; stroke: #808080; stroke-linejoin: miter"/>
   </g>
   <g id="patch_56">
    <path d="M 76.965517 274.189655 
C 76.965517 292.043764 84.065599 309.184878 96.690361 321.809639 
C 109.315122 334.434401 126.456236 341.534483 144.310345 341.534483 
C 162.164454 341.534483 179.305568 334.434401 191.930329 321.809639 
C 204.55509 309.184878 211.655172 292.043764 211.655172 274.189655 
" clip-path="url(#pc5af23950d)" style="fill: none; stroke: #808080; stroke-linejoin: miter"/>
   </g>
   <g id="patch_57">
    <path d="M 214.060345 274.189655 
C 214.060345 256.016723 206.833476 238.569518 193.983272 225.719314 
C 181.133069 212.869111 163.685863 205.642241 145.512931 205.642241 
C 127.339999 205.642241 109.892793 212.869111 97.04259 225.719314 
C 84.192386 238.569518 76.965517 256.016723 76.965517 274.189655 
" clip-path="url(#pc5af23950d)" style="fill: none; stroke: #808080; stroke-linejoin: miter"/>
   </g>
   <g id="patch_58">
    <path d="M 74.560345 274.189655 
C 74.560345 292.681411 81.914001 310.434707 94.989647 323.510353 
C 108.065293 336.585999 125.818589 343.939655 144.310345 343.939655 
C 162.8021 343.939655 180.555397 336.585999 193.631043 323.510353 
C 206.706688 310.434707 214.060345 292.681411 214.060345 274.189655 
" clip-path="url(#pc5af23950d)" style="fill: none; stroke: #808080; stroke-linejoin: miter"/>
   </g>
   <g id="patch_59">
    <path d="M 216.465517 274.189655 
C 216.465517 255.379076 208.985074 237.319688 195.683986 224.0186 
C 182.382898 210.717512 164.32351 203.237069 145.512931 203.237069 
C 126.702352 203.237069 108.642964 210.717512 95.341876 224.0186 
C 82.040788 237.319688 74.560345 255.379076 74.560345 274.189655 
" clip-path="url(#pc5af23950d)" style="fill: none; stroke: #808080; stroke-linejoin: miter"/>
   </g>
   <g id="patch_60">
    <path d="M 72.155172 274.189655 
C 72.155172 293.319057 79.762403 311.684537 93.288933 325.211067 
C 106.815463 338.737597 125.180943 346.344828 144.310345 346.344828 
C 163.439747 346.344828 181.805227 338.737597 195.331757 325.211067 
C 208.858287 311.684537 216.465517 293.319057 216.465517 274.189655 
" clip-path="url(#pc5af23950d)" style="fill: none; stroke: #808080; stroke-linejoin: miter"/>
   </g>
   <g id="patch_61">
    <path d="M 218.87069 274.189655 
C 218.87069 254.74143 211.136672 236.069859 197.3847 222.317887 
C 183.632727 208.565914 164.961157 200.831897 145.512931 200.831897 
C 126.064705 200.831897 107.393135 208.565914 93.641162 222.317887 
C 79.88919 236.069859 72.155172 254.74143 72.155172 274.189655 
" clip-path="url(#pc5af23950d)" style="fill: none; stroke: #808080; stroke-linejoin: miter"/>
   </g>
   <g id="patch_62">
    <path d="M 69.75 274.189655 
C 69.75 293.956704 77.610805 312.934366 91.588219 326.911781 
C 105.565634 340.889195 124.543296 348.75 144.310345 348.75 
C 164.077394 348.75 183.055056 340.889195 197.03247 326.911781 
C 211.009885 312.934366 218.87069 293.956704 218.87069 274.189655 
" clip-path="url(#pc5af23950d)" style="fill: none; stroke: #808080; stroke-linejoin: miter"/>
   </g>
   <g id="patch_63">
    <path d="M 221.275862 274.189655 
C 221.275862 254.103783 213.28827 234.820029 199.085413 220.617173 
C 184.882557 206.414316 165.598803 198.426724 145.512931 198.426724 
C 125.427059 198.426724 106.143305 206.414316 91.940449 220.617173 
C 77.737592 234.820029 69.75 254.103783 69.75 274.189655 
" clip-path="url(#pc5af23950d)" style="fill: none; stroke: #808080; stroke-linejoin: miter"/>
   </g>
   <g id="patch_64">
    <path d="M 67.344828 274.189655 
C 67.344828 294.594351 75.459207 314.184196 89.887506 328.612494 
C 104.315804 343.040793 123.905649 351.155172 144.310345 351.155172 
C 164.71504 351.155172 184.304885 343.040793 198.733184 328.612494 
C 213.161483 314.184196 221.275862 294.594351 221.275862 274.189655 
" clip-path="url(#pc5af23950d)" style="fill: none; stroke: #808080; stroke-linejoin: miter"/>
   </g>
   <g id="patch_65">
    <path d="M 223.681034 274.189655 
C 223.681034 253.466136 215.439868 233.5702 200.786127 218.916459 
C 186.132386 204.262718 166.23645 196.021552 145.512931 196.021552 
C 124.789412 196.021552 104.893476 204.262718 90.239735 218.916459 
C 75.585994 233.5702 67.344828 253.466136 67.344828 274.189655 
" clip-path="url(#pc5af23950d)" style="fill: none; stroke: #808080; stroke-linejoin: miter"/>
   </g>
   <g id="patch_66">
    <path d="M 223.681034 274.189655 
C 223.681034 295.231998 232.048988 315.434025 246.928171 330.313208 
C 261.807354 345.192391 282.009382 353.560345 303.051724 353.560345 
C 324.094067 353.560345 344.296094 345.192391 359.175277 330.313208 
C 374.05446 315.434025 382.422414 295.231998 382.422414 274.189655 
" clip-path="url(#pc5af23950d)" style="fill: none; stroke: #808080; stroke-linejoin: miter"/>
   </g>
   <g id="patch_67">
    <path d="M 543.568966 274.189655 
C 543.568966 252.828489 535.074225 232.320371 519.969599 217.215745 
C 504.864974 202.11112 484.356855 193.616379 462.99569 193.616379 
C 441.634524 193.616379 421.126405 202.11112 406.02178 217.215745 
C 390.917155 232.320371 382.422414 252.828489 382.422414 274.189655 
" clip-path="url(#pc5af23950d)" style="fill: none; stroke: #808080; stroke-linejoin: miter"/>
   </g>
   <g id="patch_68">
    <path d="M 380.017241 274.189655 
C 380.017241 295.869644 388.638769 316.683854 403.968837 332.013922 
C 419.298904 347.343989 440.113114 355.965517 461.793103 355.965517 
C 483.473093 355.965517 504.287303 347.343989 519.61737 332.013922 
C 534.947437 316.683854 543.568966 295.869644 543.568966 274.189655 
" clip-path="url(#pc5af23950d)" style="fill: none; stroke: #808080; stroke-linejoin: miter"/>
   </g>
   <g id="patch_69">
    <path d="M 545.974138 274.189655 
C 545.974138 252.190843 537.225823 231.070541 521.670313 215.515032 
C 506.114804 199.959522 484.994502 191.211207 462.99569 191.211207 
C 440.996877 191.211207 419.876576 199.959522 404.321066 215.515032 
C 388.765557 231.070541 380.017241 252.190843 380.017241 274.189655 
" clip-path="url(#pc5af23950d)" style="fill: none; stroke: #808080; stroke-linejoin: miter"/>
   </g>
   <g id="patch_70">
    <path d="M 377.612069 274.189655 
C 377.612069 296.507291 386.487171 317.933684 402.268123 333.714636 
C 418.049075 349.495587 439.475468 358.37069 461.793103 358.37069 
C 484.110739 358.37069 505.537132 349.495587 521.318084 333.714636 
C 537.099035 317.933684 545.974138 296.507291 545.974138 274.189655 
" clip-path="url(#pc5af23950d)" style="fill: none; stroke: #808080; stroke-linejoin: miter"/>
   </g>
   <g id="patch_71">
    <path d="M 548.37931 274.189655 
C 548.37931 251.553196 539.377421 229.820712 523.371027 213.814318 
C 507.364633 197.807924 485.632149 188.806034 462.99569 188.806034 
C 440.35923 188.806034 418.626746 197.807924 402.620352 213.814318 
C 386.613959 229.820712 377.612069 251.553196 377.612069 274.189655 
" clip-path="url(#pc5af23950d)" style="fill: none; stroke: #808080; stroke-linejoin: miter"/>
   </g>
   <g id="patch_72">
    <path d="M 375.206897 274.189655 
C 375.206897 297.144938 384.335573 319.183513 400.567409 335.415349 
C 416.799245 351.647185 438.837821 360.775862 461.793103 360.775862 
C 484.748386 360.775862 506.786961 351.647185 523.018798 335.415349 
C 539.250634 319.183513 548.37931 297.144938 548.37931 274.189655 
" clip-path="url(#pc5af23950d)" style="fill: none; stroke: #808080; stroke-linejoin: miter"/>
   </g>
   <g id="patch_73">
    <path d="M 550.784483 274.189655 
C 550.784483 250.915549 541.529019 228.570882 525.071741 212.113604 
C 508.614462 195.656326 486.269796 186.400862 462.99569 186.400862 
C 439.721584 186.400862 417.376917 195.656326 400.919639 212.113604 
C 384.462361 228.570882 375.206897 250.915549 375.206897 274.189655 
" clip-path="url(#pc5af23950d)" style="fill: none; stroke: #808080; stroke-linejoin: miter"/>
   </g>
   <g id="patch_74">
    <path d="M 372.801724 274.189655 
C 372.801724 297.782585 382.183975 320.433343 398.866696 337.116063 
C 415.549416 353.798783 438.200174 363.181034 461.793103 363.181034 
C 485.386033 363.181034 508.036791 353.798783 524.719511 337.116063 
C 541.402232 320.433343 550.784483 297.782585 550.784483 274.189655 
" clip-path="url(#pc5af23950d)" style="fill: none; stroke: #808080; stroke-linejoin: miter"/>
   </g>
   <g id="patch_75">
    <path d="M 553.189655 274.189655 
C 553.189655 250.277902 543.680617 227.321053 526.772454 210.412891 
C 509.864292 193.504728 486.907442 183.99569 462.99569 183.99569 
C 439.083937 183.99569 416.127088 193.504728 399.218925 210.412891 
C 382.310763 227.321053 372.801724 250.277902 372.801724 274.189655 
" clip-path="url(#pc5af23950d)" style="fill: none; stroke: #808080; stroke-linejoin: miter"/>
   </g>
   <g id="patch_76">
    <path d="M 370.396552 274.189655 
C 370.396552 298.420231 380.032377 321.683172 397.165982 338.816777 
C 414.299587 355.950381 437.562527 365.586207 461.793103 365.586207 
C 486.02368 365.586207 509.28662 355.950381 526.420225 338.816777 
C 543.55383 321.683172 553.189655 298.420231 553.189655 274.189655 
" clip-path="url(#pc5af23950d)" style="fill: none; stroke: #808080; stroke-linejoin: miter"/>
   </g>
   <g id="patch_77">
    <path d="M 370.396552 274.189655 
C 370.396552 249.640256 360.633939 226.071224 343.274892 208.712177 
C 325.915845 191.35313 302.346813 181.590517 277.797414 181.590517 
C 253.248014 181.590517 229.678982 191.35313 212.319935 208.712177 
C 194.960889 226.071224 185.198276 249.640256 185.198276 274.189655 
" clip-path="url(#pc5af23950d)" style="fill: none; stroke: #808080; stroke-linejoin: miter"/>
   </g>
   <g id="patch_78">
    <path d="M 185.198276 274.189655 
C 185.198276 299.057878 195.087676 322.933001 212.672165 340.51749 
C 230.256654 358.101979 254.131777 367.991379 279 367.991379 
C 303.868223 367.991379 327.743346 358.101979 345.327835 340.51749 
C 362.912324 322.933001 372.801724 299.057878 372.801724 274.189655 
" clip-path="url(#pc5af23950d)" style="fill: none; stroke: #808080; stroke-linejoin: miter"/>
   </g>
   <g id="patch_79">
    <path d="M 372.801724 274.189655 
C 372.801724 249.002609 362.785537 224.821394 344.975606 207.011463 
C 327.165675 189.201532 302.98446 179.185345 277.797414 179.185345 
C 252.610368 179.185345 228.429153 189.201532 210.619222 207.011463 
C 192.809291 224.821394 182.793103 249.002609 182.793103 274.189655 
" clip-path="url(#pc5af23950d)" style="fill: none; stroke: #808080; stroke-linejoin: miter"/>
   </g>
   <g id="patch_80">
    <path d="M 182.793103 274.189655 
C 182.793103 299.695525 192.936078 324.182831 210.971451 342.218204 
C 229.006824 360.253577 253.49413 370.396552 279 370.396552 
C 304.50587 370.396552 328.993176 360.253577 347.028549 342.218204 
C 365.063922 324.182831 375.206897 299.695525 375.206897 274.189655 
" clip-path="url(#pc5af23950d)" style="fill: none; stroke: #808080; stroke-linejoin: miter"/>
   </g>
   <g id="patch_81">
    <path d="M 375.206897 274.189655 
C 375.206897 248.364962 364.937135 223.571565 346.67632 205.310749 
C 328.415504 187.049934 303.622107 176.780172 277.797414 176.780172 
C 251.972721 176.780172 227.179323 187.049934 208.918508 205.310749 
C 190.657692 223.571565 180.387931 248.364962 180.387931 274.189655 
" clip-path="url(#pc5af23950d)" style="fill: none; stroke: #808080; stroke-linejoin: miter"/>
   </g>
   <g id="patch_82">
    <path d="M 180.387931 274.189655 
C 180.387931 300.333171 190.78448 325.43266 209.270737 343.918918 
C 227.756995 362.405176 252.856484 372.801724 279 372.801724 
C 305.143516 372.801724 330.243005 362.405176 348.729263 343.918918 
C 367.21552 325.43266 377.612069 300.333171 377.612069 274.189655 
" clip-path="url(#pc5af23950d)" style="fill: none; stroke: #808080; stroke-linejoin: miter"/>
   </g>
   <g id="patch_83">
    <path d="M 377.612069 274.189655 
C 377.612069 247.727315 367.088733 222.321735 348.377033 203.610036 
C 329.665333 184.898336 304.259753 174.375 277.797414 174.375 
C 251.335074 174.375 225.929494 184.898336 207.217794 203.610036 
C 188.506094 222.321735 177.982759 247.727315 177.982759 274.189655 
" clip-path="url(#pc5af23950d)" style="fill: none; stroke: #808080; stroke-linejoin: miter"/>
   </g>
   <g id="patch_84">
    <path d="M 177.982759 274.189655 
C 177.982759 300.970818 188.632882 326.68249 207.570024 345.619632 
C 226.507166 364.556774 252.218837 375.206897 279 375.206897 
C 305.781163 375.206897 331.492834 364.556774 350.429976 345.619632 
C 369.367118 326.68249 380.017241 300.970818 380.017241 274.189655 
" clip-path="url(#pc5af23950d)" style="fill: none; stroke: #808080; stroke-linejoin: miter"/>
   </g>
   <g id="patch_85">
    <path d="M 380.017241 274.189655 
C 380.017241 247.089669 369.240331 221.071906 350.077747 201.909322 
C 330.915163 182.746738 304.8974 171.969828 277.797414 171.969828 
C 250.697427 171.969828 224.679665 182.746738 205.517081 201.909322 
C 186.354496 221.071906 175.577586 247.089669 175.577586 274.189655 
" clip-path="url(#pc5af23950d)" style="fill: none; stroke: #808080; stroke-linejoin: miter"/>
   </g>
   <g id="patch_86">
    <path d="M 175.577586 274.189655 
C 175.577586 301.608465 186.481284 327.932319 205.86931 347.320345 
C 225.257336 366.708372 251.58119 377.612069 279 377.612069 
C 306.41881 377.612069 332.742664 366.708372 352.13069 347.320345 
C 371.518716 327.932319 382.422414 301.608465 382.422414 274.189655 
" clip-path="url(#pc5af23950d)" style="fill: none; stroke: #808080; stroke-linejoin: miter"/>
   </g>
   <g id="patch_87">
    <path d="M 382.422414 274.189655 
C 382.422414 246.452022 371.391929 219.822077 351.778461 200.208608 
C 332.164992 180.59514 305.535047 169.564655 277.797414 169.564655 
C 250.059781 169.564655 223.429835 180.59514 203.816367 200.208608 
C 184.202898 219.822077 173.172414 246.452022 173.172414 274.189655 
" clip-path="url(#pc5af23950d)" style="fill: none; stroke: #808080; stroke-linejoin: miter"/>
   </g>
   <g id="patch_88">
    <path d="M 173.172414 274.189655 
C 173.172414 302.246112 184.329685 329.182148 204.168596 349.021059 
C 224.007507 368.85997 250.943543 380.017241 279 380.017241 
C 307.056457 380.017241 333.992493 368.85997 353.831404 349.021059 
C 373.670315 329.182148 384.827586 302.246112 384.827586 274.189655 
" clip-path="url(#pc5af23950d)" style="fill: none; stroke: #808080; stroke-linejoin: miter"/>
   </g>
   <g id="patch_89">
    <path d="M 384.827586 274.189655 
C 384.827586 245.814375 373.543527 218.572247 353.479174 198.507894 
C 333.414822 178.443542 306.172694 167.159483 277.797414 167.159483 
C 249.422134 167.159483 222.180006 178.443542 202.115653 198.507894 
C 182.0513 218.572247 170.767241 245.814375 170.767241 274.189655 
" clip-path="url(#pc5af23950d)" style="fill: none; stroke: #808080; stroke-linejoin: miter"/>
   </g>
   <g id="patch_90">
    <path d="M 170.767241 274.189655 
C 170.767241 302.883758 182.178087 330.431978 202.467882 350.721773 
C 222.757677 371.011568 250.305897 382.422414 279 382.422414 
C 307.694103 382.422414 335.242323 371.011568 355.532118 350.721773 
C 375.821913 330.431978 387.232759 302.883758 387.232759 274.189655 
" clip-path="url(#pc5af23950d)" style="fill: none; stroke: #808080; stroke-linejoin: miter"/>
   </g>
   <g id="patch_91">
    <path d="M 387.232759 274.189655 
C 387.232759 245.176729 375.695125 217.322418 355.179888 196.807181 
C 334.664651 176.291944 306.81034 164.75431 277.797414 164.75431 
C 248.784487 164.75431 220.930177 176.291944 200.414939 196.807181 
C 179.899702 217.322418 168.362069 245.176729 168.362069 274.189655 
" clip-path="url(#pc5af23950d)" style="fill: none; stroke: #808080; stroke-linejoin: miter"/>
   </g>
   <g id="patch_92">
    <path d="M 168.362069 274.189655 
C 168.362069 303.521405 180.026489 331.681807 200.767169 352.422486 
C 221.507848 373.163166 249.66825 384.827586 279 384.827586 
C 308.33175 384.827586 336.492152 373.163166 357.232831 352.422486 
C 377.973511 331.681807 389.637931 303.521405 389.637931 274.189655 
" clip-path="url(#pc5af23950d)" style="fill: none; stroke: #808080; stroke-linejoin: miter"/>
   </g>
   <g id="patch_93">
    <path d="M 389.637931 274.189655 
C 389.637931 244.539082 377.846723 216.072589 356.880602 195.106467 
C 335.91448 174.140346 307.447987 162.349138 277.797414 162.349138 
C 248.14684 162.349138 219.680347 174.140346 198.714226 195.106467 
C 177.748104 216.072589 165.956897 244.539082 165.956897 274.189655 
" clip-path="url(#pc5af23950d)" style="fill: none; stroke: #808080; stroke-linejoin: miter"/>
   </g>
   <g id="patch_94">
    <path d="M 165.956897 274.189655 
C 165.956897 304.159052 177.874891 332.931637 199.066455 354.1232 
C 220.258019 375.314764 249.030603 387.232759 279 387.232759 
C 308.969397 387.232759 337.741981 375.314764 358.933545 354.1232 
C 380.125109 332.931637 392.043103 304.159052 392.043103 274.189655 
" clip-path="url(#pc5af23950d)" style="fill: none; stroke: #808080; stroke-linejoin: miter"/>
   </g>
   <g id="patch_95">
    <path d="M 392.043103 274.189655 
C 392.043103 243.901435 379.998322 214.822759 358.581316 193.405753 
C 337.16431 171.988747 308.085634 159.943966 277.797414 159.943966 
C 247.509194 159.943966 218.430518 171.988747 197.013512 193.405753 
C 175.596506 214.822759 163.551724 243.901435 163.551724 274.189655 
" clip-path="url(#pc5af23950d)" style="fill: none; stroke: #808080; stroke-linejoin: miter"/>
   </g>
   <g id="patch_96">
    <path d="M 163.551724 274.189655 
C 163.551724 304.796699 175.723293 334.181466 197.365741 355.823914 
C 219.008189 377.466362 248.392956 389.637931 279 389.637931 
C 309.607044 389.637931 338.991811 377.466362 360.634259 355.823914 
C 382.276707 334.181466 394.448276 304.796699 394.448276 274.189655 
" clip-path="url(#pc5af23950d)" style="fill: none; stroke: #808080; stroke-linejoin: miter"/>
   </g>
   <g id="patch_97">
    <path d="M 394.448276 274.189655 
C 394.448276 243.263788 382.14992 213.57293 360.282029 191.70504 
C 338.414139 169.837149 308.723281 157.538793 277.797414 157.538793 
C 246.871547 157.538793 217.180688 169.837149 195.312798 191.70504 
C 173.444908 213.57293 161.146552 243.263788 161.146552 274.189655 
" clip-path="url(#pc5af23950d)" style="fill: none; stroke: #808080; stroke-linejoin: miter"/>
   </g>
   <g id="patch_98">
    <path d="M 161.146552 274.189655 
C 161.146552 305.434345 173.571695 335.431295 195.665028 357.524628 
C 217.75836 379.61796 247.75531 392.043103 279 392.043103 
C 310.24469 392.043103 340.24164 379.61796 362.334972 357.524628 
C 384.428305 335.431295 396.853448 305.434345 396.853448 274.189655 
" clip-path="url(#pc5af23950d)" style="fill: none; stroke: #808080; stroke-linejoin: miter"/>
   </g>
   <g id="patch_99">
    <path d="M 396.853448 274.189655 
C 396.853448 242.626142 384.301518 212.3231 361.982743 190.004326 
C 339.663969 167.685551 309.360927 155.133621 277.797414 155.133621 
C 246.2339 155.133621 215.930859 167.685551 193.612084 190.004326 
C 171.29331 212.3231 158.741379 242.626142 158.741379 274.189655 
" clip-path="url(#pc5af23950d)" style="fill: none; stroke: #808080; stroke-linejoin: miter"/>
   </g>
   <g id="PatchCollection_1"/>
  </g>
 </g>
 <defs>
  <clipPath id="pc5af23950d">
   <rect x="0" y="0" width="558" height="548.37931"/>
  </clipPath>
 </defs>
</svg>
