<?xml version="1.0" encoding="utf-8" ?>
<svg xmlns="http://www.w3.org/2000/svg" xmlns:cc="http://creativecommons.org/ns" xmlns:dc="http://purl.org/dc/elements/1.1/" xmlns:ev="http://www.w3.org/2001/xml-events" xmlns:inkscape="http://www.inkscape.org/namespaces/inkscape" xmlns:rdf="http://www.w3.org/1999/02/22-rdf-syntax-ns" xmlns:sodipodi="http://sodipodi.sourceforge.net/DTD/sodipodi-0.dtd" xmlns:xlink="http://www.w3.org/1999/xlink" baseProfile="tiny" height="27.94cm" version="1.2" viewBox="0 0 1344.0 1056.0" width="35.56cm">
  <metadata>
    <rdf:RDF>
      <cc:Work>
        <dc:format>image/svg+xml</dc:format>
        <dc:source>vpype read --single-layer --layer 1 circles.svg scaleto 11in 8in layout --landscape 14inx11in linemerge linesort write out.svg
</dc:source>
        <dc:date>2023-05-13T13:01:29.653550</dc:date>
      </cc:Work>
    </rdf:RDF>
  </metadata>
  <defs/>
  <g fill="none" id="layer1" inkscape:groupmode="layer" inkscape:label="1" stroke="#000000" stroke-width="1.3333" style="display:inline">
    <line x1="626.7953" x2="659.2849" y1="621.4141" y2="698.1445"/>
    <line x1="655.3123" x2="730.2874" y1="716.5329" y2="719.4951"/>
    <line x1="727.4183" x2="816.7691" y1="718.1827" y2="662.4216"/>
    <line x1="819.4464" x2="742.7596" y1="664.5875" y2="705.7518"/>
    <line x1="743.2713" x2="825.602" y1="707.0775" y2="669.1148"/>
    <line x1="826.4689" x2="759.847" y1="665.4423" y2="700.4659"/>
    <line x1="762.286" x2="774.1938" y1="703.8907" y2="696.8224"/>
    <line x1="773.0464" x2="740.7123" y1="696.8365" y2="716.3983"/>
    <line x1="739.8594" x2="707.1725" y1="712.0328" y2="723.4177"/>
    <line x1="704.0039" x2="619.8983" y1="726.4051" y2="710.3845"/>
    <line x1="617.6863" x2="635.1104" y1="710.1502" y2="714.8516"/>
    <line x1="636.8472" x2="596.9104" y1="714.7818" y2="706.6584"/>
    <line x1="597.1424" x2="563.074" y1="704.0187" y2="683.9902"/>
    <line x1="560.5779" x2="584.5127" y1="685.1412" y2="697.1859"/>
    <line x1="585.4879" x2="554.4864" y1="697.5498" y2="681.4026"/>
    <line x1="554.9687" x2="526.5622" y1="681.5005" y2="652.5347"/>
    <line x1="527.1146" x2="538.0533" y1="654.1235" y2="665.9119"/>
    <line x1="538.7727" x2="509.696" y1="666.5565" y2="635.3009"/>
    <line x1="513.1472" x2="495.3076" y1="637.4039" y2="606.5027"/>
    <line x1="493.2821" x2="508.6439" y1="605.201" y2="628.7139"/>
    <line x1="506.9789" x2="564.1131" y1="631.3222" y2="692.5019"/>
    <line x1="563.7586" x2="522.9775" y1="696.3161" y2="647.6547"/>
    <line x1="520.804" x2="507.3448" y1="643.8862" y2="612.0505"/>
    <line x1="499.8302" x2="478.9957" y1="608.823" y2="552.8726"/>
    <line x1="478.0863" x2="481.8124" y1="552.4397" y2="572.0383"/>
    <line x1="484.0283" x2="485.7907" y1="575.5356" y2="581.6498"/>
    <line x1="484.8731" x2="487.9194" y1="579.9322" y2="588.9763"/>
    <line x1="487.5287" x2="489.742" y1="588.3196" y2="593.8612"/>
    <line x1="490.8158" x2="473.9883" y1="596.6787" y2="542.0361"/>
    <line x1="474.7144" x2="480.4768" y1="542.1803" y2="483.6587"/>
    <line x1="478.3385" x2="476.1758" y1="482.8855" y2="507.9923"/>
    <line x1="476.1611" x2="480.5534" y1="505.3883" y2="479.6769"/>
    <line x1="480.5378" x2="471.1054" y1="479.3031" y2="537.1902"/>
    <line x1="469.4133" x2="469.5978" y1="538.6355" y2="475.3199"/>
    <line x1="470.6739" x2="467.3767" y1="476.7385" y2="496.9315"/>
    <line x1="469.2425" x2="475.6072" y1="495.1574" y2="470.073"/>
    <line x1="472.9707" x2="463.5697" y1="474.0232" y2="582.0953"/>
    <line x1="463.8962" x2="462.121" y1="579.8632" y2="502.1981"/>
    <line x1="459.8371" x2="463.9097" y1="498.9698" y2="477.708"/>
    <line x1="458.4758" x2="430.7284" y1="478.9857" y2="544.9511"/>
    <line x1="418.2847" x2="441.9779" y1="538.5466" y2="607.3972"/>
    <line x1="451.8035" x2="495.8479" y1="601.3245" y2="691.8994"/>
    <line x1="494.5563" x2="513.2079" y1="694.0612" y2="712.1894"/>
    <line x1="519.5207" x2="480.6362" y1="702.8453" y2="666.749"/>
    <line x1="490.8921" x2="469.9408" y1="664.466" y2="630.6512"/>
    <line x1="473.8159" x2="463.9575" y1="622.0235" y2="596.9654"/>
    <line x1="465.0791" x2="458.7464" y1="596.0652" y2="572.4924"/>
    <line x1="461.4275" x2="499.8533" y1="579.3737" y2="627.0267"/>
    <polyline points="498.868,619.5288 528.6929,655.0515 528.5702,654.9287 535.4945,662.1391"/>
    <line x1="539.1753" x2="514.459" y1="665.2203" y2="641.4258"/>
    <line x1="516.9542" x2="557.4809" y1="642.2755" y2="686.0283"/>
    <line x1="558.4784" x2="658.1491" y1="686.8285" y2="725.6649"/>
    <line x1="660.2179" x2="695.0442" y1="726.7254" y2="726.337"/>
    <line x1="687.0444" x2="663.3254" y1="726.2822" y2="725.3744"/>
    <line x1="662.1005" x2="542.0902" y1="728.3913" y2="681.4498"/>
    <line x1="542.3329" x2="470.8277" y1="686.6576" y2="564.9279"/>
    <line x1="473.5258" x2="493.215" y1="562.0651" y2="631.4328"/>
    <line x1="496.2786" x2="513.8339" y1="634.4448" y2="660.6474"/>
    <line x1="513.2262" x2="471.4948" y1="655.9406" y2="547.0377"/>
    <line x1="475.5992" x2="476.8092" y1="549.6869" y2="512.8076"/>
    <line x1="475.8215" x2="485.2315" y1="518.3088" y2="431.5788"/>
    <line x1="478.3656" x2="467.1579" y1="436.9808" y2="468.0224"/>
    <line x1="468.5061" x2="479.9645" y1="470.074" y2="563.3312"/>
    <line x1="480.6876" x2="485.5466" y1="565.3546" y2="585.3715"/>
    <line x1="485.6038" x2="498.3575" y1="583.8798" y2="616.5747"/>
    <line x1="499.08" x2="486.8362" y1="613.2059" y2="590.0113"/>
    <line x1="483.6579" x2="479.9508" y1="594.1023" y2="584.6488"/>
    <line x1="478.2299" x2="487.052" y1="581.7306" y2="609.4337"/>
    <line x1="489.9714" x2="478.1801" y1="611.9468" y2="587.7849"/>
    <line x1="477.8577" x2="473.2363" y1="590.4135" y2="577.8907"/>
    <line x1="476.3809" x2="482.226" y1="580.4895" y2="599.7186"/>
    <line x1="481.2717" x2="487.7678" y1="602.5528" y2="615.0695"/>
    <line x1="484.0094" x2="540.0919" y1="613.5701" y2="674.0485"/>
    <line x1="538.2746" x2="551.6005" y1="672.6854" y2="682.1045"/>
    <line x1="550.2446" x2="581.7017" y1="681.0027" y2="699.0445"/>
    <line x1="581.937" x2="565.0859" y1="695.8994" y2="686.9142"/>
    <line x1="559.6092" x2="609.51" y1="682.1091" y2="715.9499"/>
    <line x1="608.1552" x2="575.2773" y1="715.5567" y2="703.8582"/>
    <line x1="579.7617" x2="630.4044" y1="705.4328" y2="726.7171"/>
    <line x1="632.9028" x2="564.5075" y1="724.8917" y2="707.2675"/>
    <line x1="571.9355" x2="538.4763" y1="710.0672" y2="686.6862"/>
    <line x1="538.1454" x2="478.4211" y1="687.4302" y2="606.7928"/>
    <line x1="471.7953" x2="484.4985" y1="606.6712" y2="634.7263"/>
    <line x1="483.2265" x2="471.4497" y1="632.9388" y2="617.427"/>
    <line x1="479.293" x2="468.0038" y1="620.9783" y2="595.472"/>
    <line x1="466.6824" x2="503.1567" y1="593.4791" y2="669.1727"/>
    <line x1="503.1134" x2="524.8952" y1="673.3357" y2="698.0634"/>
    <line x1="524.631" x2="487.9994" y1="700.0992" y2="657.5226"/>
    <line x1="500.1942" x2="456.3314" y1="656.403" y2="561.3872"/>
    <line x1="458.1128" x2="454.487" y1="559.2428" y2="539.8153"/>
    <line x1="461.2521" x2="458.9563" y1="542.1139" y2="516.9009"/>
    <line x1="463.2162" x2="499.9813" y1="519.3831" y2="392.4855"/>
    <line x1="500.1301" x2="490.209" y1="391.7027" y2="405.2646"/>
    <line x1="493.0826" x2="592.9747" y1="405.8702" y2="338.6332"/>
    <line x1="589.0801" x2="524.8654" y1="339.8369" y2="374.6112"/>
    <line x1="523.6148" x2="483.657" y1="367.6285" y2="408.7068"/>
    <line x1="490.8029" x2="473.2096" y1="417.6785" y2="526.3964"/>
    <line x1="474.6188" x2="478.4975" y1="524.5595" y2="490.9295"/>
    <line x1="477.4234" x2="476.1798" y1="490.8489" y2="545.5628"/>
    <line x1="477.6231" x2="479.5023" y1="546.0665" y2="560.7773"/>
    <line x1="477.8459" x2="476.093" y1="560.734" y2="548.7152"/>
    <line x1="476.132" x2="474.6799" y1="550.3265" y2="459.4944"/>
    <line x1="474.5875" x2="481.0689" y1="457.0738" y2="441.7193"/>
    <line x1="478.4538" x2="515.2601" y1="440.8034" y2="392.8578"/>
    <line x1="518.9615" x2="478.0006" y1="398.6548" y2="462.2018"/>
    <line x1="474.7342" x2="512.5864" y1="462.4625" y2="407.3357"/>
    <line x1="512.3192" x2="526.6634" y1="406.9883" y2="391.0988"/>
    <line x1="527.5054" x2="546.0559" y1="389.6423" y2="371.8567"/>
    <line x1="543.3251" x2="583.216" y1="372.6944" y2="344.1463"/>
    <line x1="580.6817" x2="553.2894" y1="347.5772" y2="363.8235"/>
    <line x1="556.021" x2="505.8381" y1="364.332" y2="405.0783"/>
    <line x1="506.6734" x2="492.6017" y1="404.7133" y2="424.1152"/>
    <line x1="496.3342" x2="480.5418" y1="425.6127" y2="458.7005"/>
    <line x1="478.9282" x2="473.1223" y1="455.9317" y2="475.0934"/>
    <line x1="475.1832" x2="508.9901" y1="480.7918" y2="408.5708"/>
    <line x1="505.446" x2="540.8815" y1="410.1619" y2="375.2932"/>
    <line x1="540.6681" x2="550.6809" y1="375.5426" y2="367.6432"/>
    <line x1="549.1933" x2="568.0576" y1="369.0897" y2="356.8734"/>
    <line x1="564.6361" x2="572.4103" y1="357.928" y2="353.1589"/>
    <line x1="576.5052" x2="666.9478" y1="347.137" y2="315.2637"/>
    <line x1="667.4142" x2="691.3169" y1="315.8969" y2="317.3004"/>
    <line x1="693.2808" x2="704.7617" y1="321.8771" y2="324.4699"/>
    <line x1="707.8597" x2="762.7847" y1="323.4722" y2="347.0055"/>
    <line x1="762.8141" x2="820.2223" y1="347.9379" y2="380.3841"/>
    <line x1="820.576" x2="857.0086" y1="376.1483" y2="453.8077"/>
    <line x1="856.9506" x2="851.68" y1="455.3683" y2="441.9311"/>
    <line x1="851.4618" x2="840.3298" y1="442.7249" y2="420.2327"/>
    <line x1="841.0549" x2="826.8181" y1="422.104" y2="401.5882"/>
    <line x1="825.9032" x2="811.9821" y1="400.8182" y2="385.5481"/>
    <line x1="811.5406" x2="768.8601" y1="382.2483" y2="348.8814"/>
    <line x1="769.2896" x2="800.0547" y1="349.4707" y2="373.2818"/>
    <line x1="803.2461" x2="837.8111" y1="374.5151" y2="415.4185"/>
    <line x1="835.2342" x2="804.474" y1="413.9316" y2="371.3484"/>
    <line x1="800.2241" x2="809.3058" y1="369.8436" y2="378.4904"/>
    <line x1="807.3292" x2="835.5311" y1="378.1603" y2="412.0719"/>
    <line x1="835.6662" x2="821.13" y1="412.6836" y2="393.1038"/>
    <line x1="820.9421" x2="745.888" y1="390.6886" y2="328.1174"/>
    <line x1="747.5167" x2="770.3348" y1="330.4029" y2="342.2395"/>
    <line x1="769.7028" x2="720.8479" y1="346.0486" y2="332.461"/>
    <line x1="720.0421" x2="742.9204" y1="326.6738" y2="333.7151"/>
    <line x1="740.744" x2="694.2397" y1="334.1106" y2="329.069"/>
    <line x1="692.2082" x2="687.89" y1="326.8992" y2="326.505"/>
    <line x1="688.5327" x2="622.8741" y1="326.3212" y2="321.5838"/>
    <line x1="622.0643" x2="536.7957" y1="316.6523" y2="347.5486"/>
    <line x1="533.7686" x2="556.732" y1="346.4336" y2="333.7412"/>
    <line x1="565.2962" x2="555.0067" y1="340.711" y2="349.9311"/>
    <line x1="552.3384" x2="501.758" y1="348.6497" y2="419.3693"/>
    <line x1="504.9141" x2="494.5921" y1="418.3045" y2="439.7551"/>
    <line x1="493.6395" x2="486.7576" y1="439.1793" y2="460.1932"/>
    <line x1="486.4035" x2="477.0417" y1="458.1125" y2="495.7085"/>
    <line x1="478.7687" x2="474.2466" y1="498.4256" y2="556.7848"/>
    <line x1="475.6546" x2="482.0246" y1="559.195" y2="580.7268"/>
    <line x1="484.3397" x2="468.4301" y1="578.1099" y2="521.4074"/>
    <line x1="466.9896" x2="467.6596" y1="518.2015" y2="541.0537"/>
    <line x1="473.3501" x2="480.2062" y1="534.6264" y2="566.2689"/>
    <line x1="481.192" x2="473.3466" y1="565.3257" y2="520.9635"/>
    <line x1="470.1634" x2="488.5202" y1="517.117" y2="451.804"/>
    <line x1="487.6809" x2="505.3722" y1="449.6409" y2="418.6314"/>
    <line x1="504.1495" x2="535.1048" y1="413.6792" y2="382.4858"/>
    <line x1="531.0469" x2="523.6619" y1="384.7597" y2="392.8312"/>
    <line x1="522.8666" x2="555.1184" y1="394.7572" y2="359.6156"/>
    <line x1="556.6664" x2="596.0294" y1="360.3" y2="325.4591"/>
    <line x1="596.9301" x2="631.617" y1="330.771" y2="317.8941"/>
    <line x1="630.1855" x2="583.3819" y1="315.4514" y2="329.0206"/>
    <line x1="575.9341" x2="543.8734" y1="328.8596" y2="344.7857"/>
    <line x1="548.1603" x2="527.7831" y1="348.188" y2="365.6569"/>
    <line x1="524.1048" x2="527.5102" y1="363.1107" y2="359.9998"/>
    <line x1="533.0835" x2="497.0407" y1="365.2288" y2="433.1739"/>
    <line x1="498.2305" x2="502.869" y1="432.1892" y2="423.3227"/>
    <line x1="499.4417" x2="536.8079" y1="424.7378" y2="367.7183"/>
    <line x1="532.6012" x2="549.0815" y1="370.1423" y2="355.3362"/>
    <line x1="548.2747" x2="503.0321" y1="356.7682" y2="413.3192"/>
    <line x1="502.8776" x2="561.6485" y1="408.7622" y2="357.4891"/>
    <line x1="562.763" x2="548.8666" y1="359.0848" y2="370.8875"/>
    <line x1="543.2916" x2="579.1392" y1="374.4359" y2="345.7787"/>
    <line x1="578.5558" x2="602.2814" y1="348.2751" y2="337.6756"/>
    <line x1="603.2095" x2="589.6605" y1="338.1518" y2="344.0999"/>
    <line x1="590.6676" x2="600.2802" y1="342.6478" y2="338.9004"/>
    <line x1="598.7044" x2="664.233" y1="340.2578" y2="314.2331"/>
    <line x1="666.6932" x2="700.2648" y1="311.657" y2="312.4419"/>
    <line x1="701.7181" x2="759.6623" y1="311.3542" y2="314.6835"/>
    <line x1="756.3243" x2="710.3866" y1="312.2527" y2="295.7028"/>
    <line x1="717.5975" x2="610.2304" y1="297.3381" y2="305.3418"/>
    <line x1="603.7923" x2="718.4788" y1="303.5399" y2="301.0791"/>
    <line x1="724.7256" x2="816.0572" y1="304.4965" y2="367.3027"/>
    <line x1="813.5026" x2="806.9735" y1="368.2781" y2="362.8413"/>
    <line x1="799.0901" x2="810.7049" y1="364.4143" y2="373.8045"/>
    <line x1="815.7172" x2="846.0802" y1="374.8662" y2="431.9438"/>
    <line x1="845.6828" x2="828.7657" y1="431.5402" y2="403.4885"/>
    <line x1="828.9586" x2="790.605" y1="403.5427" y2="361.7723"/>
    <line x1="790.7392" x2="761.5154" y1="363.0697" y2="348.0141"/>
    <line x1="765.3661" x2="739.2107" y1="348.6654" y2="336.7941"/>
    <line x1="738.5044" x2="651.3007" y1="334.2977" y2="302.5902"/>
    <line x1="656.757" x2="739.4886" y1="302.1884" y2="313.0131"/>
    <line x1="738.4144" x2="781.5066" y1="317.533" y2="334.058"/>
    <line x1="776.5013" x2="828.8653" y1="332.9631" y2="380.4087"/>
    <line x1="831.2926" x2="851.1557" y1="382.0209" y2="417.3411"/>
    <line x1="851.8159" x2="872.5291" y1="420.7369" y2="529.034"/>
    <line x1="873.0224" x2="872.0498" y1="526.7049" y2="502.9724"/>
    <line x1="868.8548" x2="870.7129" y1="505.3277" y2="549.6265"/>
    <line x1="869.8394" x2="853.9437" y1="550.004" y2="593.5128"/>
    <line x1="855.2199" x2="856.9135" y1="592.189" y2="587.7503"/>
    <line x1="857.2999" x2="836.5605" y1="586.4372" y2="645.3261"/>
    <line x1="835.2748" x2="859.8621" y1="645.3224" y2="576.2746"/>
    <line x1="860.584" x2="869.0772" y1="575.1869" y2="540.2633"/>
    <line x1="867.1323" x2="867.2561" y1="539.2661" y2="537.902"/>
    <line x1="868.4088" x2="866.3268" y1="535.3199" y2="498.6156"/>
    <line x1="866.3502" x2="866.843" y1="498.826" y2="503.7066"/>
    <line x1="869.3282" x2="864.3103" y1="512.4023" y2="596.1773"/>
    <line x1="865.0415" x2="867.9858" y1="598.0818" y2="529.9782"/>
    <line x1="867.3167" x2="867.5201" y1="530.1412" y2="512.8588"/>
    <line x1="867.8817" x2="867.3591" y1="516.1905" y2="530.8937"/>
    <line x1="867.6649" x2="866.4175" y1="524.1206" y2="610.8927"/>
    <line x1="864.8308" x2="811.1797" y1="607.299" y2="668.3157"/>
    <line x1="807.1975" x2="769.761" y1="666.6632" y2="692.2999"/>
    <line x1="772.426" x2="737.1483" y1="690.499" y2="703.1963"/>
    <line x1="737.3121" x2="755.6869" y1="705.9264" y2="699.2035"/>
    <line x1="754.9885" x2="762.5419" y1="699.5338" y2="695.9032"/>
    <line x1="765.0849" x2="701.5048" y1="695.416" y2="720.5469"/>
    <line x1="697.6194" x2="738.5762" y1="715.621" y2="708.4466"/>
    <line x1="738.3833" x2="821.624" y1="710.2629" y2="664.8908"/>
    <line x1="820.3552" x2="838.7123" y1="666.7795" y2="645.462"/>
    <line x1="835.2337" x2="785.554" y1="646.5814" y2="689.2848"/>
    <line x1="783.1986" x2="831.6384" y1="688.3654" y2="637.3696"/>
    <line x1="829.6396" x2="858.9652" y1="636.9177" y2="596.7977"/>
    <line x1="860.8596" x2="869.7573" y1="594.9282" y2="563.6022"/>
    <line x1="863.7033" x2="870.0589" y1="567.5847" y2="515.065"/>
    <line x1="870.4743" x2="861.4353" y1="519.3816" y2="469.0113"/>
    <line x1="859.5475" x2="863.5827" y1="464.963" y2="483.0733"/>
    <line x1="864.0733" x2="870.8259" y1="478.3309" y2="523.7739"/>
    <line x1="875.2042" x2="875.2211" y1="524.5267" y2="471.1628"/>
    <line x1="879.2725" x2="857.7877" y1="467.2252" y2="392.4385"/>
    <line x1="863.6742" x2="803.1354" y1="394.4216" y2="338.1266"/>
    <line x1="806.1931" x2="809.5512" y1="334.4735" y2="337.0414"/>
    <line x1="810.441" x2="736.1542" y1="337.7274" y2="282.1597"/>
    <line x1="742.2394" x2="750.2902" y1="272.8067" y2="276.336"/>
    <line x1="756.3048" x2="824.9551" y1="262.8396" y2="272.6063"/>
    <line x1="863.1223" x2="886.9432" y1="276.3868" y2="284.9833"/>
    <line x1="862.365" x2="899.5666" y1="283.3159" y2="319.1428"/>
    <line x1="895.5155" x2="943.615" y1="336.4658" y2="412.0344"/>
    <line x1="923.5613" x2="934.691" y1="420.231" y2="546.5014"/>
    <line x1="946.7944" x2="897.2346" y1="539.2394" y2="385.3891"/>
    <line x1="912.3574" x2="925.5429" y1="375.6795" y2="394.8376"/>
    <line x1="908.6597" x2="909.2744" y1="407.9669" y2="408.8295"/>
    <line x1="885.3528" x2="896.4139" y1="411.4138" y2="441.0706"/>
    <line x1="884.6491" x2="898.7351" y1="450.852" y2="502.8694"/>
    <line x1="899.3079" x2="903.2784" y1="505.1139" y2="558.3862"/>
    <line x1="899.7951" x2="907.9788" y1="555.9057" y2="486.6625"/>
    <line x1="902.0316" x2="904.9304" y1="483.7054" y2="501.7404"/>
    <line x1="915.1272" x2="902.3479" y1="506.1518" y2="585.8061"/>
    <line x1="904.3116" x2="887.2805" y1="588.5236" y2="483.1013"/>
    <line x1="884.0116" x2="882.2054" y1="487.4941" y2="530.124"/>
    <line x1="882.3382" x2="881.2797" y1="531.4711" y2="492.618"/>
    <line x1="876.0224" x2="881.6973" y1="489.7491" y2="542.3461"/>
    <line x1="880.2794" x2="855.137" y1="545.2271" y2="609.4574"/>
    <line x1="849.6498" x2="868.7187" y1="606.1836" y2="550.4705"/>
    <line x1="867.54" x2="858.3793" y1="550.0761" y2="584.4351"/>
    <line x1="858.9003" x2="843.94" y1="585.538" y2="614.7487"/>
    <line x1="845.4706" x2="834.0864" y1="615.9139" y2="632.3372"/>
    <line x1="842.5332" x2="832.1237" y1="629.2236" y2="642.4334"/>
    <line x1="833.1812" x2="789.3409" y1="643.1774" y2="678.2253"/>
    <line x1="786.1311" x2="792.894" y1="677.5144" y2="671.4278"/>
    <line x1="792.8292" x2="785.6291" y1="673.436" y2="678.9082"/>
    <line x1="784.5919" x2="798.7202" y1="682.455" y2="672.335"/>
    <line x1="800.4666" x2="804.5265" y1="667.7102" y2="664.1291"/>
    <line x1="805.533" x2="778.4883" y1="667.7226" y2="686.5027"/>
    <line x1="780.8715" x2="823.8631" y1="684.9375" y2="655.637"/>
    <line x1="827.0846" x2="809.1736" y1="657.3536" y2="677.3664"/>
    <line x1="810.414" x2="804.6793" y1="678.0565" y2="683.3842"/>
    <line x1="806.9601" x2="783.8373" y1="679.0758" y2="697.2592"/>
    <line x1="789.4356" x2="771.9483" y1="692.8838" y2="704.5459"/>
    <line x1="769.4839" x2="716.4336" y1="700.9522" y2="718.4027"/>
    <line x1="714.9946" x2="805.5119" y1="715.8058" y2="676.6184"/>
    <line x1="797.9937" x2="766.6615" y1="677.7576" y2="696.3687"/>
    <line x1="765.7999" x2="693.0006" y1="704.4375" y2="716.7751"/>
    <line x1="694.3" x2="710.7645" y1="716.6465" y2="713.3781"/>
    <line x1="711.7541" x2="690.7034" y1="713.3173" y2="717.5152"/>
    <line x1="685.2718" x2="712.9103" y1="718.6644" y2="713.3367"/>
    <line x1="714.0131" x2="752.5373" y1="711.7454" y2="702.5487"/>
    <line x1="748.1808" x2="714.5294" y1="702.6325" y2="716.0856"/>
    <line x1="727.8043" x2="632.4316" y1="721.9209" y2="714.9738"/>
    <line x1="639.7846" x2="658.8125" y1="714.3855" y2="717.0674"/>
    <line x1="656.3077" x2="588.6987" y1="718.9087" y2="708.2319"/>
    <line x1="590.5082" x2="623.2782" y1="707.8421" y2="719.1303"/>
    <line x1="626.1496" x2="731.3257" y1="723.0159" y2="729.2559"/>
    <line x1="725.2569" x2="683.5316" y1="740.792" y2="751.7652"/>
    <line x1="681.8398" x2="763.5879" y1="750.9444" y2="714.595"/>
    <line x1="761.0706" x2="671.6529" y1="716.2902" y2="749.259"/>
    <line x1="672.6189" x2="619.455" y1="749.8753" y2="754.8021"/>
    <line x1="628.3417" x2="583.718" y1="752.7465" y2="740.5988"/>
    <line x1="578.7801" x2="674.6549" y1="744.2602" y2="768.8087"/>
    <line x1="682.5562" x2="733.8431" y1="762.0372" y2="760.01"/>
    <line x1="733.5763" x2="805.6355" y1="749.9606" y2="718.9868"/>
    <line x1="801.8923" x2="742.4185" y1="714.8507" y2="740.165"/>
    <line x1="739.1625" x2="723.9838" y1="742.7292" y2="743.0054"/>
    <line x1="718.7736" x2="651.2043" y1="737.6808" y2="737.0375"/>
    <line x1="646.8439" x2="692.5416" y1="736.5256" y2="739.5999"/>
    <line x1="701.7035" x2="716.574" y1="744.4154" y2="741.7373"/>
    <line x1="714.5129" x2="653.0666" y1="735.6116" y2="732.4861"/>
    <line x1="654.7971" x2="627.1543" y1="731.979" y2="726.615"/>
    <line x1="625.6672" x2="703.0897" y1="727.7977" y2="735.9821"/>
    <line x1="705.6458" x2="673.6384" y1="736.4619" y2="737.0775"/>
    <line x1="672.9552" x2="625.8248" y1="733.143" y2="724.6239"/>
    <line x1="614.4071" x2="497.6716" y1="723.1692" y2="638.9736"/>
    <line x1="503.1623" x2="507.44" y1="635.2562" y2="641.3795"/>
    <line x1="509.7853" x2="576.6127" y1="646.6094" y2="698.0086"/>
    <line x1="578.2312" x2="558.5742" y1="695.5838" y2="681.3393"/>
    <line x1="554.3283" x2="586.1751" y1="677.7242" y2="699.9764"/>
    <line x1="587.4941" x2="623.9878" y1="700.5227" y2="711.5132"/>
    <line x1="644.7904" x2="603.079" y1="717.0929" y2="705.518"/>
    <line x1="600.9614" x2="585.885" y1="703.7876" y2="696.8112"/>
    <line x1="578.5526" x2="597.6796" y1="694.4991" y2="703.6116"/>
    <line x1="597.7952" x2="532.796" y1="703.1118" y2="675.7949"/>
    <line x1="534.0142" x2="599.699" y1="672.6578" y2="703.7598"/>
    <line x1="600.0278" x2="662.2748" y1="710.2559" y2="717.2374"/>
    <line x1="665.9159" x2="678.6469" y1="717.6159" y2="717.6801"/>
    <line x1="674.8926" x2="728.5743" y1="721.5705" y2="710.2716"/>
    <line x1="732.3316" x2="741.135" y1="709.4327" y2="706.6929"/>
    <line x1="742.6499" x2="755.6438" y1="703.9101" y2="698.2234"/>
    <line x1="757.5071" x2="799.6661" y1="708.9817" y2="687.67"/>
    <line x1="803.2202" x2="843.1496" y1="688.799" y2="655.2198"/>
    <line x1="841.8404" x2="886.2649" y1="657.2459" y2="603.4284"/>
    <line x1="887.0754" x2="837.1554" y1="594.374" y2="701.1245"/>
    <line x1="834.3962" x2="846.4558" y1="695.8268" y2="685.4662"/>
    <line x1="852.4036" x2="886.256" y1="696.2521" y2="632.0308"/>
    <line x1="882.3204" x2="900.3772" y1="618.5703" y2="582.4001"/>
    <line x1="899.5485" x2="845.4468" y1="599.4049" y2="656.4703"/>
    <line x1="849.7395" x2="893.333" y1="649.6801" y2="533.9947"/>
    <line x1="893.3532" x2="894.5996" y1="540.0057" y2="521.4709"/>
    <line x1="896.2821" x2="900.8519" y1="516.6286" y2="464.7792"/>
    <line x1="899.1257" x2="901.5236" y1="472.9662" y2="488.8425"/>
    <line x1="889.4797" x2="890.0799" y1="488.7696" y2="511.3552"/>
    <line x1="887.6995" x2="886.0318" y1="512.8648" y2="546.7893"/>
    <line x1="890.7636" x2="844.8727" y1="545.4406" y2="638.1653"/>
    <line x1="853.2664" x2="815.5774" y1="639.7774" y2="637.435"/>
    <line x1="823.0854" x2="819.8297" y1="646.5657" y2="650.5062"/>
    <line x1="819.3095" x2="812.6128" y1="651.0723" y2="658.3382"/>
    <line x1="815.741" x2="755.7994" y1="654.9067" y2="719.0302"/>
    <line x1="751.2805" x2="671.4389" y1="716.2674" y2="720.2688"/>
    <line x1="672.9156" x2="737.528" y1="719.2822" y2="711.2098"/>
    <line x1="751.8408" x2="829.8195" y1="709.8737" y2="643.5841"/>
    <line x1="830.5966" x2="792.8628" y1="645.7956" y2="675.8025"/>
    <line x1="799.8034" x2="757.7119" y1="656.5106" y2="558.5225"/>
    <line x1="850.7299" x2="839.4932" y1="602.508" y2="622.5379"/>
    <line x1="841.3033" x2="818.527" y1="622.3807" y2="653.4634"/>
    <line x1="821.9289" x2="873.2048" y1="648.0931" y2="582.5315"/>
    <line x1="875.1431" x2="857.1236" y1="588.0752" y2="633.3843"/>
    <line x1="861.104" x2="853.123" y1="626.8782" y2="640.6898"/>
    <line x1="854.1699" x2="876.6687" y1="646.4804" y2="593.1164"/>
    <line x1="877.5187" x2="888.1166" y1="590.3443" y2="541.7182"/>
    <line x1="888.8749" x2="881.0114" y1="551.2475" y2="584.5165"/>
    <line x1="877.1323" x2="883.2656" y1="595.9994" y2="563.317"/>
    <line x1="880.118" x2="868.7486" y1="566.6789" y2="616.5087"/>
    <line x1="875.527" x2="872.9934" y1="618.0221" y2="623.5462"/>
    <line x1="861.4806" x2="794.6946" y1="622.3154" y2="709.3081"/>
    <line x1="791.6307" x2="784.8211" y1="702.578" y2="706.9575"/>
    <line x1="784.2026" x2="765.459" y1="704.4944" y2="688.2617"/>
    <line x1="780.4382" x2="756.2661" y1="715.3646" y2="726.9845"/>
    <line x1="749.5546" x2="654.3013" y1="730.8163" y2="744.9472"/>
    <line x1="659.0317" x2="637.9849" y1="749.9495" y2="742.6019"/>
    <line x1="657.6216" x2="669.5465" y1="738.3436" y2="739.1559"/>
    <line x1="661.2928" x2="538.9178" y1="738.6921" y2="700.9277"/>
    <line x1="536.4167" x2="570.9936" y1="694.046" y2="719.6467"/>
    <line x1="574.4501" x2="586.0753" y1="726.6739" y2="730.0831"/>
    <line x1="595.0976" x2="677.5849" y1="725.9929" y2="724.7701"/>
    <line x1="672.661" x2="589.5235" y1="725.3009" y2="675.8712"/>
    <line x1="573.2124" x2="554.0525" y1="691.3233" y2="677.6051"/>
    <line x1="556.0274" x2="602.0245" y1="692.2266" y2="710.7283"/>
    <line x1="584.0232" x2="487.1091" y1="712.6282" y2="620.2231"/>
    <line x1="487.26" x2="510.4901" y1="625.0163" y2="664.1828"/>
    <line x1="510.2154" x2="522.8322" y1="664.0428" y2="678.4854"/>
    <line x1="521.7488" x2="490.6077" y1="680.9882" y2="627.402"/>
    <line x1="479.6488" x2="454.0712" y1="631.6197" y2="548.2926"/>
    <line x1="451.3697" x2="460.1348" y1="547.9438" y2="590.3007"/>
    <line x1="453.9004" x2="445.6427" y1="585.7515" y2="496.4092"/>
    <line x1="461.0495" x2="458.1404" y1="496.8234" y2="522.7644"/>
    <line x1="459.4395" x2="463.9931" y1="525.1357" y2="554.2821"/>
    <line x1="465.128" x2="501.9238" y1="552.9195" y2="619.0576"/>
    <line x1="497.7856" x2="527.8349" y1="611.0025" y2="661.9444"/>
    <line x1="518.0034" x2="555.9213" y1="668.954" y2="700.8935"/>
    <line x1="547.0285" x2="538.0394" y1="695.4455" y2="688.8758"/>
    <line x1="537.796" x2="509.627" y1="715.4128" y2="695.3484"/>
    <line x1="481.7405" x2="471.7293" y1="717.6107" y2="711.7318"/>
    <line x1="453.5023" x2="524.2391" y1="719.9723" y2="760.3144"/>
    <line x1="550.1409" x2="556.3316" y1="752.7655" y2="753.9379"/>
    <line x1="565.9936" x2="587.5885" y1="764.6236" y2="774.476"/>
    <line x1="593.8537" x2="572.7803" y1="760.7273" y2="743.5239"/>
    <line x1="637.5495" x2="685.2976" y1="768.7347" y2="779.5585"/>
    <line x1="681.1673" x2="638.1303" y1="781.7784" y2="780.3513"/>
    <line x1="621.411" x2="688.4548" y1="804.3547" y2="791.1598"/>
    <line x1="697.6819" x2="667.4495" y1="785.9884" y2="782.2218"/>
    <line x1="664.362" x2="696.4755" y1="757.4416" y2="756.7781"/>
    <line x1="696.0851" x2="755.1336" y1="762.4092" y2="744.1962"/>
    <line x1="754.0437" x2="771.7942" y1="748.6582" y2="747.027"/>
    <line x1="778.4268" x2="706.2729" y1="744.3861" y2="751.9121"/>
    <line x1="709.8781" x2="715.0745" y1="758.8076" y2="757.8254"/>
    <line x1="724.2571" x2="761.9246" y1="770.6279" y2="768.878"/>
    <line x1="764.5543" x2="699.8501" y1="741.5849" y2="763.8116"/>
    <line x1="717.4938" x2="818.036" y1="733.4603" y2="669.3579"/>
    <line x1="836.615" x2="838.2975" y1="663.956" y2="661.9898"/>
    <line x1="861.6225" x2="769.4767" y1="660.3886" y2="739.7941"/>
    <line x1="779.8732" x2="800.6546" y1="744.7921" y2="733.5443"/>
    <line x1="790.7112" x2="850.7449" y1="738.0237" y2="698.5264"/>
    <line x1="832.5069" x2="872.4832" y1="690.5257" y2="643.5704"/>
    <line x1="877.5442" x2="874.0665" y1="660.5665" y2="675.8497"/>
    <line x1="889.6067" x2="816.766" y1="700.6625" y2="745.8614"/>
    <line x1="810.254" x2="835.1182" y1="753.2559" y2="751.0948"/>
    <line x1="852.0007" x2="880.3002" y1="753.3245" y2="720.1181"/>
    <line x1="875.5926" x2="953.2874" y1="715.113" y2="638.794"/>
    <line x1="957.9448" x2="930.6108" y1="632.7345" y2="680.2729"/>
    <line x1="947.8239" x2="926.5612" y1="674.452" y2="703.0991"/>
    <line x1="911.2914" x2="948.6614" y1="675.1951" y2="596.8795"/>
    <line x1="968.7665" x2="968.4951" y1="616.8122" y2="626.6917"/>
    <line x1="977.7007" x2="982.0824" y1="612.6338" y2="577.1405"/>
    <line x1="981.1476" x2="977.4818" y1="537.2155" y2="460.4656"/>
    <line x1="950.1632" x2="952.1139" y1="473.2709" y2="499.3471"/>
    <line x1="952.4966" x2="959.1026" y1="495.3134" y2="528.8919"/>
    <line x1="922.0862" x2="908.9117" y1="560.2885" y2="525.4614"/>
    <line x1="888.4742" x2="888.7436" y1="525.1295" y2="501.8297"/>
    <line x1="881.8774" x2="872.3694" y1="509.972" y2="420.9371"/>
    <line x1="864.9389" x2="877.3569" y1="421.4798" y2="463.527"/>
    <line x1="882.0721" x2="856.7586" y1="465.4024" y2="599.0079"/>
    <line x1="855.3811" x2="880.8256" y1="596.4035" y2="514.0881"/>
    <line x1="876.1747" x2="870.0041" y1="507.8451" y2="546.2657"/>
    <line x1="870.8187" x2="866.2464" y1="547.8187" y2="478.6275"/>
    <line x1="868.5588" x2="867.7003" y1="479.3157" y2="593.6377"/>
    <line x1="867.536" x2="890.5103" y1="602.9527" y2="561.6049"/>
    <line x1="887.2194" x2="880.9964" y1="559.0484" y2="443.1501"/>
    <line x1="876.0111" x2="872.5012" y1="445.4286" y2="436.4154"/>
    <line x1="873.4546" x2="888.2156" y1="436.8217" y2="470.8182"/>
    <line x1="881.2451" x2="842.1691" y1="476.4464" y2="391.7654"/>
    <line x1="838.3831" x2="817.8281" y1="386.6802" y2="364.7041"/>
    <line x1="819.2966" x2="806.9961" y1="361.6718" y2="352.4132"/>
    <line x1="805.2413" x2="768.9968" y1="350.1638" y2="322.1233"/>
    <line x1="768.4953" x2="790.4434" y1="325.35" y2="338.0694"/>
    <line x1="784.6202" x2="828.9455" y1="338.7017" y2="405.8294"/>
    <line x1="829.311" x2="796.4203" y1="404.2568" y2="366.2441"/>
    <line x1="794.4452" x2="787.7082" y1="369.0034" y2="363.8119"/>
    <line x1="787.3716" x2="745.5643" y1="363.1346" y2="332.3358"/>
    <line x1="739.9809" x2="781.1947" y1="326.908" y2="352.5425"/>
    <line x1="783.1517" x2="732.2715" y1="353.9998" y2="334.6844"/>
    <line x1="730.9283" x2="635.4123" y1="331.9223" y2="317.432"/>
    <line x1="640.8377" x2="649.7873" y1="318.7504" y2="317.7359"/>
    <line x1="648.6215" x2="684.6035" y1="313.8532" y2="312.1078"/>
    <line x1="684.4779" x2="700.8741" y1="312.8059" y2="314.266"/>
    <line x1="698.015" x2="654.3907" y1="317.2094" y2="311.4034"/>
    <line x1="651.5736" x2="539.304" y1="322.1817" y2="358.4878"/>
    <line x1="536.218" x2="558.8868" y1="357.9815" y2="350.8044"/>
    <line x1="555.7802" x2="651.6334" y1="345.5477" y2="325.2586"/>
    <line x1="651.8202" x2="621.8888" y1="324.8822" y2="331.692"/>
    <line x1="620.1635" x2="611.5226" y1="332.2783" y2="334.9779"/>
    <line x1="613.6213" x2="681.6409" y1="333.8049" y2="318.3979"/>
    <line x1="680.9904" x2="605.9348" y1="321.2961" y2="334.1762"/>
    <line x1="605.7379" x2="576.7205" y1="326.5382" y2="341.1291"/>
    <line x1="579.2837" x2="632.2001" y1="349.0158" y2="323.6116"/>
    <line x1="637.8273" x2="656.9287" y1="328.0792" y2="325.6128"/>
    <line x1="660.6635" x2="760.0757" y1="325.4239" y2="325.4905"/>
    <line x1="759.2885" x2="746.8947" y1="327.1922" y2="321.6483"/>
    <line x1="737.6151" x2="815.9877" y1="325.4645" y2="385.369"/>
    <line x1="817.8027" x2="831.8842" y1="389.6969" y2="408.4401"/>
    <line x1="830.5798" x2="839.1619" y1="415.8565" y2="435.4028"/>
    <line x1="843.1517" x2="823.5718" y1="430.3275" y2="404.8117"/>
    <line x1="825.2892" x2="808.4802" y1="401.1406" y2="381.0516"/>
    <line x1="819.718" x2="874.9326" y1="370.0634" y2="482.5947"/>
    <line x1="873.9926" x2="865.8026" y1="478.9887" y2="545.3086"/>
    <line x1="872.5087" x2="859.1604" y1="543.9363" y2="446.6702"/>
    <line x1="856.531" x2="866.0051" y1="445.9799" y2="469.6221"/>
    <line x1="869.8477" x2="842.1571" y1="475.8936" y2="425.1443"/>
    <line x1="848.8417" x2="855.3035" y1="437.3361" y2="454.612"/>
    <line x1="854.9885" x2="850.3882" y1="450.5517" y2="438.567"/>
    <line x1="853.5609" x2="830.4625" y1="448.3015" y2="400.7672"/>
    <line x1="823.7177" x2="764.2656" y1="397.5057" y2="327.8164"/>
    <line x1="757.7285" x2="771.3175" y1="326.4211" y2="332.926"/>
    <line x1="773.3184" x2="801.6283" y1="327.9208" y2="345.1574"/>
    <line x1="796.5749" x2="787.5236" y1="355.9689" y2="349.4362"/>
    <line x1="782.7609" x2="704.2963" y1="343.8663" y2="329.0608"/>
    <line x1="704.6462" x2="736.6756" y1="328.3631" y2="335.7626"/>
    <line x1="734.3874" x2="696.9875" y1="328.0718" y2="321.8083"/>
    <line x1="687.6821" x2="625.4837" y1="322.7845" y2="329.1977"/>
    <line x1="624.1235" x2="582.0005" y1="336.9203" y2="354.2769"/>
    <line x1="585.1954" x2="645.9932" y1="338.6147" y2="327.7469"/>
    <line x1="642.6276" x2="686.2663" y1="327.6222" y2="324.5568"/>
    <line x1="683.4341" x2="727.5996" y1="324.3396" y2="333.3829"/>
    <line x1="720.9546" x2="673.1508" y1="324.0956" y2="319.9805"/>
    <line x1="672.603" x2="715.5832" y1="318.2651" y2="320.3514"/>
    <line x1="715.791" x2="651.0218" y1="322.2393" y2="327.1761"/>
    <line x1="647.4466" x2="661.7145" y1="322.8368" y2="323.4832"/>
    <line x1="670.6205" x2="774.7193" y1="320.0445" y2="345.0025"/>
    <line x1="775.7596" x2="736.6611" y1="343.5459" y2="323.7145"/>
    <line x1="731.2425" x2="819.4645" y1="321.3757" y2="342.9894"/>
    <line x1="814.735" x2="698.1355" y1="344.5182" y2="293.7982"/>
    <line x1="712.2147" x2="775.7677" y1="322.6446" y2="354.0268"/>
    <line x1="773.7973" x2="792.7167" y1="353.4599" y2="367.9166"/>
    <line x1="792.5032" x2="767.6043" y1="366.6617" y2="348.6689"/>
    <line x1="760.1875" x2="828.0537" y1="343.3497" y2="393.3792"/>
    <line x1="829.0851" x2="874.3582" y1="383.7595" y2="443.3736"/>
    <line x1="869.3468" x2="831.4476" y1="450.197" y2="364.6621"/>
    <line x1="829.9743" x2="867.4487" y1="363.9263" y2="426.5488"/>
    <line x1="863.9526" x2="830.7975" y1="414.1769" y2="369.5426"/>
    <line x1="831.7999" x2="779.1447" y1="372.3029" y2="364.7613"/>
    <line x1="763.1786" x2="675.9358" y1="336.4602" y2="323.8701"/>
    <line x1="666.1958" x2="724.6257" y1="301.0653" y2="319.3927"/>
    <line x1="753.3153" x2="785.5383" y1="302.6757" y2="324.283"/>
    <line x1="790.1808" x2="780.0181" y1="313.4197" y2="307.4948"/>
    <line x1="806.6528" x2="725.576" y1="329.8677" y2="275.6333"/>
    <line x1="725.4948" x2="784.5994" y1="232.0626" y2="271.0583"/>
    <line x1="828.824" x2="878.1177" y1="220.8807" y2="238.7521"/>
    <line x1="870.7085" x2="812.9415" y1="224.3613" y2="144.0"/>
    <line x1="828.7913" x2="791.3415" y1="147.5535" y2="177.0849"/>
    <line x1="747.3091" x2="743.1721" y1="214.4062" y2="212.8954"/>
    <line x1="697.0652" x2="682.774" y1="227.3712" y2="227.6935"/>
    <line x1="662.1545" x2="645.2107" y1="247.9573" y2="249.5098"/>
    <line x1="649.8372" x2="593.7093" y1="233.6947" y2="245.4462"/>
    <line x1="593.387" x2="541.721" y1="244.3729" y2="263.2179"/>
    <line x1="550.3142" x2="509.558" y1="276.8501" y2="306.7408"/>
    <line x1="495.1704" x2="492.6815" y1="318.3816" y2="320.5903"/>
    <line x1="481.2343" x2="535.2175" y1="311.1737" y2="279.1288"/>
    <line x1="531.2031" x2="617.0359" y1="281.4976" y2="260.9488"/>
    <line x1="619.0883" x2="666.165" y1="262.8504" y2="260.8447"/>
    <line x1="653.3974" x2="571.8128" y1="274.854" y2="322.6411"/>
    <line x1="566.7307" x2="524.9306" y1="317.6597" y2="350.1539"/>
    <line x1="522.1775" x2="476.7568" y1="345.9606" y2="441.155"/>
    <line x1="476.4224" x2="502.6918" y1="430.5925" y2="395.3751"/>
    <line x1="507.3381" x2="470.3592" y1="401.286" y2="482.8442"/>
    <line x1="468.6558" x2="512.3414" y1="487.7211" y2="414.1113"/>
    <line x1="514.2186" x2="499.2828" y1="405.4448" y2="429.9478"/>
    <line x1="500.9542" x2="517.2782" y1="429.3378" y2="403.2535"/>
    <line x1="517.7374" x2="490.8872" y1="400.5734" y2="441.1368"/>
    <line x1="488.5568" x2="480.2778" y1="447.6146" y2="479.3562"/>
    <line x1="481.6172" x2="478.9527" y1="475.8919" y2="493.0086"/>
    <line x1="479.6355" x2="482.876" y1="486.3314" y2="470.8166"/>
    <line x1="467.9005" x2="514.9348" y1="490.0946" y2="401.1161"/>
    <line x1="516.3482" x2="458.8908" y1="383.8426" y2="445.8249"/>
    <line x1="461.0544" x2="469.5591" y1="435.0565" y2="415.461"/>
    <line x1="461.7982" x2="475.3085" y1="418.5731" y2="350.4511"/>
    <line x1="489.4755" x2="535.5623" y1="352.1811" y2="307.241"/>
    <line x1="548.5177" x2="524.2723" y1="321.4252" y2="337.1309"/>
    <line x1="509.9298" x2="492.215" y1="340.6861" y2="361.2121"/>
    <line x1="502.1427" x2="494.5456" y1="364.9588" y2="374.7136"/>
    <line x1="485.8491" x2="449.4498" y1="371.7606" y2="402.7926"/>
    <line x1="449.2784" x2="413.162" y1="413.0215" y2="492.8681"/>
    <line x1="410.946" x2="410.8686" y1="496.6813" y2="513.2381"/>
    <line x1="408.6809" x2="410.3625" y1="505.9533" y2="466.1273"/>
    <line x1="436.4003" x2="430.7404" y1="466.7687" y2="510.0542"/>
    <line x1="442.147" x2="455.0583" y1="529.2588" y2="632.7672"/>
    <line x1="463.3939" x2="465.0229" y1="642.6572" y2="645.2428"/>
    <line x1="435.0279" x2="440.0926" y1="660.028" y2="668.9743"/>
    <line x1="412.6335" x2="490.5454" y1="666.1366" y2="749.5441"/>
    <line x1="476.1098" x2="436.6764" y1="757.0077" y2="726.3549"/>
    <line x1="430.8158" x2="409.5476" y1="738.3804" y2="700.8427"/>
    <line x1="404.0508" x2="400.463" y1="683.8563" y2="677.0305"/>
    <line x1="397.922" x2="373.8598" y1="679.142" y2="628.7876"/>
    <line x1="385.6726" x2="366.1899" y1="606.8129" y2="520.3651"/>
    <line x1="367.7293" x2="406.4537" y1="504.8309" y2="427.3862"/>
    <line x1="422.1294" x2="450.5561" y1="407.0038" y2="363.5143"/>
    <line x1="440.6607" x2="417.5229" y1="351.0076" y2="377.3754"/>
    <line x1="399.3681" x2="373.7213" y1="389.1502" y2="428.0167"/>
    <line x1="368.7353" x2="365.3239" y1="438.1359" y2="465.7291"/>
    <line x1="356.7873" x2="450.8634" y1="461.9629" y2="382.6887"/>
    <line x1="440.6663" x2="467.3832" y1="382.2297" y2="329.093"/>
    <line x1="459.4207" x2="504.5939" y1="341.5789" y2="330.8531"/>
    <line x1="506.9272" x2="474.1884" y1="354.8373" y2="390.0127"/>
    <line x1="498.2341" x2="446.7115" y1="386.2699" y2="443.6528"/>
    <line x1="447.5297" x2="517.419" y1="451.5011" y2="369.52"/>
    <line x1="514.2703" x2="534.9052" y1="377.4213" y2="356.6739"/>
    <line x1="546.4927" x2="609.1775" y1="357.4231" y2="320.6258"/>
    <line x1="604.3735" x2="536.8046" y1="321.5581" y2="373.3809"/>
    <line x1="546.7836" x2="551.5416" y1="363.638" y2="359.943"/>
    <line x1="549.7877" x2="608.6462" y1="386.5834" y2="367.851"/>
    <line x1="580.5968" x2="606.5443" y1="407.3178" y2="439.7472"/>
    <line x1="591.6077" x2="602.5514" y1="320.3961" y2="316.489"/>
    <line x1="604.4107" x2="619.2747" y1="319.118" y2="314.5954"/>
    <line x1="617.6113" x2="540.7122" y1="303.9852" y2="325.8728"/>
    <line x1="542.6671" x2="631.2426" y1="325.96" y2="300.9379"/>
    <line x1="595.2046" x2="490.074" y1="247.0668" y2="299.5399"/>
    <line x1="478.573" x2="522.2148" y1="297.3888" y2="272.5081"/>
    <line x1="493.1932" x2="574.7068" y1="272.8341" y2="246.9869"/>
    <line x1="568.1262" x2="634.272" y1="253.8025" y2="232.2053"/>
    <line x1="645.7771" x2="594.6795" y1="231.9281" y2="233.5704"/>
    <line x1="618.8522" x2="575.1788" y1="170.3397" y2="163.5589"/>
    <line x1="654.154" x2="664.6123" y1="162.6403" y2="159.0279"/>
    <line x1="501.5441" x2="433.5079" y1="213.905" y2="236.5143"/>
    <line x1="419.7656" x2="465.3593" y1="243.2144" y2="222.0852"/>
    <line x1="471.9722" x2="463.7012" y1="269.5667" y2="275.7813"/>
    <line x1="488.3623" x2="493.227" y1="286.5127" y2="282.1339"/>
    <line x1="493.5764" x2="455.1558" y1="283.8496" y2="346.6676"/>
    <line x1="446.4168" x2="463.2666" y1="414.3073" y2="494.6839"/>
    <line x1="460.6787" x2="459.9563" y1="505.9595" y2="559.3973"/>
    <line x1="452.3354" x2="504.3887" y1="559.6691" y2="658.933"/>
    <line x1="509.8866" x2="475.5325" y1="651.8177" y2="571.2779"/>
    <line x1="476.3221" x2="480.8788" y1="581.1081" y2="596.2129"/>
    <line x1="479.5483" x2="470.0873" y1="591.0616" y2="555.5109"/>
    <line x1="470.2952" x2="476.4121" y1="556.0426" y2="583.7782"/>
    <line x1="476.398" x2="476.8088" y1="585.0277" y2="503.2183"/>
    <line x1="452.6508" x2="475.2363" y1="523.6671" y2="600.0131"/>
    <line x1="452.4939" x2="447.1415" y1="596.3269" y2="581.8951"/>
    <line x1="445.1918" x2="431.5142" y1="594.9229" y2="481.7689"/>
    <line x1="452.1449" x2="465.536" y1="475.4785" y2="576.8436"/>
    <line x1="422.2069" x2="389.3521" y1="607.7485" y2="556.0113"/>
    <line x1="411.2716" x2="411.6032" y1="555.9662" y2="549.6007"/>
    <line x1="399.3015" x2="399.045" y1="533.025" y2="519.7555"/>
    <line x1="402.603" x2="382.7687" y1="515.5521" y2="472.6644"/>
    <line x1="367.6833" x2="371.9849" y1="479.8791" y2="404.1158"/>
    <line x1="331.6122" x2="379.4653" y1="362.8034" y2="321.7477"/>
    <line x1="292.1065" x2="325.4787" y1="423.7777" y2="509.5734"/>
    <line x1="325.7276" x2="293.3789" y1="506.3368" y2="612.5743"/>
    <line x1="300.8481" x2="360.0824" y1="648.7074" y2="717.6629"/>
    <line x1="365.4094" x2="409.4969" y1="722.5378" y2="790.7115"/>
    <line x1="417.8381" x2="382.2813" y1="795.1899" y2="748.2697"/>
    <line x1="391.7437" x2="422.9798" y1="736.0633" y2="768.4383"/>
    <line x1="403.0133" x2="400.3745" y1="741.7783" y2="737.1116"/>
    <line x1="395.5694" x2="389.1646" y1="679.8145" y2="668.3471"/>
    <line x1="401.6316" x2="401.3937" y1="673.7508" y2="643.5086"/>
    <line x1="356.294" x2="351.2433" y1="699.6012" y2="696.5182"/>
    <line x1="283.0679" x2="281.5881" y1="772.5026" y2="772.9187"/>
    <line x1="335.3063" x2="326.0318" y1="827.6593" y2="912.0"/>
    <line x1="460.2515" x2="482.3322" y1="823.004" y2="833.4384"/>
    <line x1="494.9964" x2="550.8809" y1="842.6352" y2="842.8345"/>
    <line x1="595.6728" x2="695.1568" y1="809.9913" y2="801.4566"/>
    <line x1="705.1864" x2="806.3877" y1="810.4398" y2="702.4457"/>
    <line x1="745.5927" x2="659.6683" y1="743.5827" y2="737.9463"/>
    <line x1="668.8727" x2="756.7435" y1="813.9991" y2="802.4944"/>
    <line x1="746.3232" x2="789.029" y1="811.8233" y2="791.7333"/>
    <line x1="803.8949" x2="829.843" y1="801.3026" y2="780.4305"/>
    <line x1="818.6828" x2="857.2462" y1="813.1732" y2="814.116"/>
    <line x1="860.6913" x2="816.0923" y1="818.1984" y2="897.4163"/>
    <line x1="804.8619" x2="771.8025" y1="857.0483" y2="851.8787"/>
    <line x1="771.5637" x2="742.1665" y1="880.5793" y2="889.1423"/>
    <line x1="741.8613" x2="809.523" y1="894.2507" y2="835.3705"/>
    <line x1="874.8751" x2="910.7073" y1="771.9278" y2="732.8143"/>
    <line x1="895.0962" x2="880.4744" y1="748.5167" y2="760.8467"/>
    <line x1="885.583" x2="878.9987" y1="766.1686" y2="772.3273"/>
    <line x1="984.6948" x2="1007.8842" y1="696.602" y2="641.2073"/>
    <line x1="913.0184" x2="917.1948" y1="546.0513" y2="499.1491"/>
    <line x1="920.7464" x2="920.2109" y1="462.3217" y2="459.1339"/>
    <line x1="860.692" x2="824.2664" y1="462.3153" y2="382.8351"/>
    <line x1="836.8714" x2="824.768" y1="370.0995" y2="359.1902"/>
    <line x1="832.3518" x2="865.5292" y1="355.2126" y2="398.6549"/>
    <line x1="866.1539" x2="847.3906" y1="376.0601" y2="355.8799"/>
    <line x1="865.0157" x2="916.8039" y1="305.9919" y2="364.3542"/>
    <line x1="933.196" x2="973.6729" y1="358.6416" y2="406.0557"/>
    <line x1="968.1408" x2="955.1842" y1="404.4194" y2="393.6027"/>
    <line x1="968.1105" x2="935.0655" y1="412.0246" y2="350.7282"/>
    <line x1="927.6087" x2="938.2554" y1="346.873" y2="360.7892"/>
    <line x1="954.3582" x2="972.7874" y1="332.1436" y2="372.922"/>
    <line x1="999.0036" x2="973.7387" y1="379.7044" y2="344.2241"/>
    <line x1="1002.7721" x2="988.5148" y1="337.1818" y2="308.3597"/>
    <line x1="957.3329" x2="952.2325" y1="299.1101" y2="296.4084"/>
    <line x1="943.7022" x2="906.1451" y1="274.8713" y2="233.5477"/>
    <line x1="1024.2243" x2="1007.9299" y1="399.625" y2="478.7657"/>
    <line x1="864.0769" x2="852.1441" y1="515.1342" y2="466.7155"/>
    <line x1="865.3342" x2="859.6639" y1="555.546" y2="585.6411"/>
    <line x1="859.1782" x2="866.4221" y1="579.6656" y2="555.8542"/>
    <line x1="861.6751" x2="848.7704" y1="571.41" y2="614.2899"/>
    <line x1="849.0693" x2="842.2902" y1="611.9469" y2="624.9345"/>
    <line x1="668.902" x2="623.2473" y1="836.4171" y2="847.228"/>
    <line x1="616.0262" x2="655.9309" y1="853.9881" y2="853.7508"/>
    <line x1="643.7361" x2="616.2099" y1="873.7379" y2="881.4546"/>
    <line x1="617.9633" x2="641.3447" y1="883.7268" y2="888.9609"/>
    <line x1="1055.5976" x2="1062.4119" y1="798.8092" y2="799.2888"/>
    <line x1="329.0226" x2="318.8313" y1="533.0765" y2="562.434"/>
    <line x1="282.6473" x2="302.5643" y1="531.3961" y2="462.324"/>
  </g>
</svg>
